<?xml version="1.0" standalone="no"?>
<!DOCTYPE svg PUBLIC "-//W3C//DTD SVG 20010904//EN"
 "http://www.w3.org/TR/2001/REC-SVG-20010904/DTD/svg10.dtd">
<svg version="1.0" xmlns="http://www.w3.org/2000/svg"
 width="800.000000pt" height="800.000000pt" viewBox="0 0 800.000000 800.000000"
 preserveAspectRatio="xMidYMid meet">

<g transform="translate(0.000000,800.000000) scale(0.100000,-0.100000)"
fill="#000000" stroke="none">
<path d="M2663 7465 c-29 -14 -67 -43 -84 -63 -18 -20 -45 -42 -60 -49 -115
-49 -186 -433 -124 -668 23 -86 77 -196 121 -245 120 -133 316 -128 438 12 79
91 118 195 136 371 16 159 -12 369 -65 480 -56 118 -134 177 -243 184 -58 4
-74 1 -119 -22z m136 -68 c60 -55 114 -246 127 -447 12 -190 -33 -416 -99
-495 -24 -30 -35 -35 -70 -35 -90 0 -158 89 -193 250 -17 81 -23 298 -10 388
l8 52 32 -19 c30 -19 34 -19 54 -5 27 19 28 41 3 49 -10 3 -31 18 -46 32 -30
31 -29 47 12 132 21 44 23 55 12 62 -11 7 -9 13 11 29 54 43 116 46 159 7z"/>
<path d="M4191 7344 c-30 -25 -44 -59 -56 -136 -6 -38 -6 -38 -54 -38 -26 0
-63 5 -80 11 -26 9 -36 9 -47 -3 -24 -24 15 -49 95 -61 l69 -11 -5 -216 c-5
-227 -15 -291 -57 -353 -19 -27 -71 -56 -82 -45 -2 3 1 19 7 37 17 49 7 140
-24 202 -14 30 -60 95 -101 144 l-74 90 5 90 c5 82 3 92 -17 118 -26 32 -60
35 -86 6 -29 -32 -26 -149 5 -209 18 -33 23 -59 22 -99 -2 -59 -32 -207 -57
-284 -17 -52 -109 -161 -126 -150 -14 8 -5 205 18 381 10 80 13 137 7 143 -5
5 -23 11 -40 15 -47 9 -61 -21 -93 -209 -28 -167 -46 -219 -79 -237 -68 -36
-104 86 -80 271 7 57 13 124 13 149 1 45 1 45 -34 45 -32 0 -37 -4 -57 -45
-30 -61 -43 -134 -43 -248 0 -115 13 -161 56 -203 41 -40 109 -50 168 -25 21
9 40 16 42 16 2 0 4 -28 4 -62 l0 -63 -56 -24 c-140 -61 -203 -163 -160 -265
33 -80 132 -101 234 -50 98 49 130 120 114 255 -11 92 -13 86 53 132 71 50
128 166 155 312 7 39 15 77 17 85 3 9 24 -24 51 -79 38 -78 47 -107 50 -163
l4 -68 -72 0 c-87 0 -110 -11 -110 -50 0 -31 35 -66 78 -77 31 -7 99 13 137
41 17 13 52 26 78 29 62 9 101 32 124 74 10 18 20 33 24 33 3 0 14 -20 23 -45
24 -60 57 -85 115 -85 58 0 101 26 143 85 l32 45 16 -28 c43 -68 109 -102 197
-102 80 0 122 14 171 55 54 47 76 109 108 298 14 83 27 154 30 159 9 13 94 10
94 -4 0 -7 -7 -71 -15 -143 -26 -233 -18 -314 36 -359 74 -62 184 -5 243 125
28 60 66 197 66 236 0 12 4 23 8 23 11 0 72 -118 72 -139 0 -9 -16 -31 -35
-50 -48 -47 -93 -117 -101 -158 -10 -51 15 -73 80 -73 146 1 239 132 197 277
-11 38 -8 40 55 52 61 12 91 0 108 -41 12 -29 14 -30 20 -10 9 27 -17 87 -42
101 -31 16 -82 13 -129 -9 l-43 -19 -14 27 c-8 15 -47 65 -85 112 l-71 85 5
85 c8 113 -18 162 -77 147 -57 -15 -68 -126 -23 -226 25 -55 27 -69 21 -130
-9 -99 -49 -244 -80 -291 -61 -92 -116 -71 -116 44 0 33 7 132 17 218 21 198
24 193 -100 185 l-88 -5 7 112 c7 124 -3 175 -39 201 -50 35 -132 2 -178 -72
-33 -53 -34 -178 -2 -239 29 -54 45 -66 99 -72 l45 -5 -6 -51 c-12 -98 -48
-261 -66 -296 -35 -70 -78 -100 -145 -100 -48 0 -110 58 -128 121 l-14 46 51
12 c72 16 149 53 181 87 69 75 29 198 -78 239 -64 25 -117 8 -182 -59 -58 -59
-80 -112 -94 -224 -16 -120 -67 -212 -117 -212 -19 0 -29 10 -46 48 -18 41
-22 70 -25 225 -2 98 -1 217 3 263 l7 86 81 -7 c83 -6 125 4 134 32 6 16 -42
64 -59 59 -7 -3 -44 -7 -82 -11 l-69 -6 7 63 c4 35 10 80 13 101 5 35 4 37
-20 37 -14 0 -39 -12 -56 -26z m709 -93 c12 -23 13 -230 1 -249 -6 -10 -13 -5
-28 20 -54 89 -52 248 3 248 7 0 18 -9 24 -19z m-202 -365 c30 -91 -36 -186
-129 -186 -20 0 -21 3 -16 52 8 64 49 151 79 166 36 17 52 10 66 -32z m799
-349 c-3 -32 -12 -56 -27 -72 -27 -29 -75 -34 -84 -9 -8 22 24 92 64 138 34
38 34 38 43 14 5 -12 7 -45 4 -71z m-1672 -96 c9 -15 -28 -31 -46 -20 -12 8
-12 10 1 19 19 12 37 13 45 1z m-393 -188 c5 -137 -8 -185 -54 -209 -62 -32
-108 13 -108 106 0 69 21 104 81 134 75 37 79 36 81 -31z"/>
<path d="M4194 5625 c-98 -31 -173 -84 -205 -146 -10 -21 -31 -46 -45 -55 -25
-17 -28 -16 -97 20 -40 20 -84 36 -100 36 -49 0 -130 -35 -236 -103 -131 -84
-152 -88 -242 -52 -117 48 -178 35 -288 -60 -78 -67 -122 -86 -217 -95 -137
-12 -197 -59 -267 -210 -21 -47 -49 -96 -60 -109 -12 -13 -60 -41 -107 -62
-46 -22 -92 -47 -102 -56 -41 -37 -69 -103 -79 -186 -17 -149 -41 -222 -93
-277 -30 -32 -46 -58 -46 -75 0 -65 -33 -104 -150 -175 -64 -39 -79 -72 -95
-212 -25 -227 -73 -297 -224 -332 -59 -14 -111 -46 -111 -69 0 -25 -57 -80
-120 -118 -172 -102 -212 -196 -208 -499 1 -136 -2 -169 -25 -273 -33 -147
-33 -167 -1 -259 77 -218 77 -228 18 -343 -71 -138 -79 -168 -79 -300 0 -101
4 -131 24 -189 56 -163 190 -225 270 -126 52 65 71 73 195 81 146 9 199 30
303 118 91 77 138 98 182 83 15 -6 34 -6 41 -2 7 5 31 0 56 -10 117 -51 167
-35 302 92 81 76 112 97 206 143 104 50 218 85 328 101 l47 6 -15 -48 c-8 -28
-12 -64 -9 -85 6 -34 3 -38 -64 -98 -86 -77 -184 -230 -206 -323 -16 -68 -30
-82 -99 -99 -53 -13 -126 -69 -126 -98 0 -31 -48 -119 -69 -126 -11 -3 -32
-20 -46 -36 -30 -37 -34 -100 -7 -140 32 -50 131 -121 195 -141 65 -20 238
-37 377 -38 106 0 196 -21 280 -64 106 -55 219 -96 280 -103 68 -7 109 11 143
62 32 49 62 54 103 14 29 -28 42 -33 106 -39 56 -4 86 -13 129 -38 65 -37 95
-39 173 -12 84 29 148 34 216 20 76 -16 105 -5 143 55 26 41 32 44 82 50 37 5
74 2 123 -11 89 -23 144 -10 170 39 10 17 30 44 45 60 26 28 31 29 85 23 31
-4 71 -6 87 -5 56 3 123 -9 183 -31 82 -31 183 9 247 98 18 26 51 58 73 70 37
20 42 21 68 7 64 -33 120 -15 162 54 37 59 48 66 135 81 82 15 141 54 168 113
10 23 19 49 19 58 0 9 11 42 25 74 l26 58 42 -7 c153 -25 169 -22 193 35 25
55 67 79 138 79 92 0 102 11 116 120 8 61 11 68 58 110 54 50 112 145 112 186
0 28 37 69 88 96 22 12 40 33 53 63 11 26 43 67 70 93 27 25 49 54 49 64 0 10
-9 35 -20 55 -26 48 -25 56 7 113 l26 47 -26 64 c-14 35 -29 74 -32 87 -9 32
22 150 51 195 14 20 27 51 31 67 8 41 -21 113 -58 144 -18 16 -29 34 -29 51 0
38 -15 60 -50 75 -39 16 -38 38 5 92 106 131 111 145 74 191 -22 29 -89 52
-125 43 -13 -4 -32 -1 -43 6 -17 10 -19 20 -14 60 7 54 -3 72 -52 92 -22 9
-42 31 -63 69 -34 60 -38 62 -124 72 -47 6 -63 14 -101 49 -25 22 -62 54 -82
70 -20 16 -50 50 -67 75 -56 84 -68 90 -172 85 -50 -3 -110 -10 -133 -16 -34
-8 -48 -7 -74 6 -59 29 -139 16 -139 -24 0 -10 -6 -25 -14 -33 -15 -14 -24
-14 -138 8 -29 6 -44 3 -71 -14 -20 -12 -51 -21 -75 -21 -22 0 -52 -4 -65 -9
-22 -8 -27 -5 -48 27 -24 37 -43 47 -111 57 -28 4 -38 11 -38 24 0 34 -26 44
-98 39 -37 -3 -73 -7 -81 -9 -17 -5 -36 30 -81 143 -26 64 -43 88 -104 148
-96 94 -101 103 -87 172 7 31 21 73 31 94 11 21 20 46 20 56 0 9 9 32 20 51
35 59 41 94 25 142 -13 37 -13 47 0 78 23 56 18 111 -16 188 -16 38 -33 93
-36 122 -9 78 -36 100 -147 120 -106 19 -127 36 -188 146 -80 144 -147 192
-273 190 -38 -1 -88 -7 -111 -14z m116 -67 c0 -7 -30 -41 -67 -75 -37 -34 -64
-66 -60 -69 4 -4 17 2 30 13 12 11 41 25 64 32 33 9 50 22 73 56 17 25 37 45
44 45 32 0 82 -49 118 -115 21 -38 38 -73 38 -77 0 -4 -17 -16 -37 -27 -54
-27 -80 -60 -87 -106 l-6 -40 19 42 c19 41 90 103 118 103 16 0 30 -29 17 -39
-23 -16 -94 -102 -94 -113 0 -7 10 1 21 17 12 17 39 43 61 58 39 27 39 28 66
9 37 -26 88 -42 131 -42 20 0 47 -7 59 -16 24 -16 30 -37 9 -28 -7 2 -28 -7
-47 -21 -40 -30 -49 -32 -27 -7 21 23 22 48 2 55 -15 6 -65 -45 -65 -68 0 -7
6 -18 14 -24 12 -10 5 -20 -38 -60 -28 -27 -65 -55 -82 -64 -17 -9 -36 -23
-43 -31 -24 -28 12 -19 55 14 21 16 55 41 74 54 19 13 50 40 68 60 18 20 41
36 51 36 10 0 24 7 31 15 7 8 16 12 21 9 17 -10 9 -22 -19 -27 -15 -3 -41 -20
-57 -38 -17 -18 -50 -52 -74 -76 -37 -36 -40 -43 -23 -43 11 0 35 17 54 37 57
63 90 93 102 93 22 0 43 -24 60 -68 34 -90 11 -174 -88 -316 -92 -131 -92
-144 -4 -51 42 44 78 78 81 75 2 -3 8 -19 11 -36 6 -27 2 -38 -23 -66 -40 -46
-81 -125 -81 -158 0 -25 -2 -27 -36 -21 -42 7 -49 22 -16 36 23 10 30 25 11
25 -25 0 -49 -22 -49 -46 0 -14 4 -22 10 -19 19 12 10 -10 -15 -38 -22 -22
-23 -27 -9 -27 10 0 29 10 43 23 22 19 23 19 8 1 -25 -30 -21 -42 16 -49 60
-12 67 -16 81 -48 7 -18 35 -57 63 -87 62 -68 73 -89 73 -137 0 -33 -32 -123
-43 -123 -2 0 -2 15 0 33 4 27 -2 22 -33 -36 -21 -38 -58 -90 -84 -116 -43
-44 -53 -49 -106 -55 -69 -8 -83 -15 -81 -39 3 -28 -64 -48 -123 -37 -25 5
-63 5 -83 0 -20 -4 -37 -5 -37 -1 3 44 42 165 64 194 58 76 53 150 -15 224
-21 24 -39 48 -39 55 0 41 40 144 82 207 26 41 48 80 48 87 0 7 -9 28 -19 46
-15 26 -20 58 -23 153 -3 93 -8 127 -22 151 -28 47 -71 69 -137 68 -48 -1 -70
-8 -155 -54 -127 -69 -175 -73 -283 -21 -64 31 -71 38 -73 65 l-1 31 -4 -32
c-4 -32 -32 -48 -34 -20 0 7 -3 7 -6 -3 -9 -21 -45 -49 -66 -50 -34 0 -76 -30
-108 -76 -17 -25 -52 -61 -78 -79 -33 -24 -59 -55 -85 -103 -40 -73 -64 -92
-119 -92 -39 0 -104 -42 -202 -130 -38 -35 -72 -66 -75 -69 -26 -32 -76 -60
-117 -66 -137 -20 -322 -185 -323 -287 0 -19 -4 -26 -14 -22 -8 3 -17 1 -21
-5 -3 -6 -30 -27 -60 -46 -30 -18 -59 -43 -65 -54 -6 -12 -24 -28 -40 -36 -16
-8 -37 -30 -46 -48 -9 -17 -62 -77 -118 -132 -80 -79 -110 -117 -144 -182 -24
-46 -42 -83 -39 -83 2 0 28 39 57 86 62 102 104 150 182 210 31 25 65 58 75
74 9 16 29 34 44 41 16 6 35 21 43 34 13 19 132 95 150 95 3 0 6 -31 6 -68 0
-119 -36 -208 -163 -403 -41 -63 -87 -139 -102 -169 -15 -30 -41 -70 -56 -88
-51 -58 -76 -120 -82 -205 -7 -97 -22 -128 -148 -309 -156 -223 -197 -325
-175 -441 9 -50 59 -120 103 -144 46 -25 63 -29 217 -48 65 -8 121 -17 124
-20 13 -13 -98 -47 -179 -55 -91 -9 -151 -30 -195 -71 -11 -11 -24 -16 -27
-12 -4 3 -7 1 -7 -5 0 -6 -21 -23 -46 -38 -57 -34 -131 -39 -158 -11 -14 13
-21 15 -32 6 -10 -8 -26 -7 -63 6 -28 9 -59 14 -70 10 -17 -5 -18 -2 -11 37 5
23 4 51 0 63 -14 36 -97 97 -134 98 -33 1 -33 1 -55 86 -68 257 -70 279 -41
410 11 49 22 123 26 163 8 110 53 377 70 425 9 24 29 52 45 64 16 11 38 37 49
57 29 56 59 84 180 162 60 40 110 74 110 77 0 5 -12 -1 -83 -49 -32 -22 -81
-50 -108 -63 -31 -14 -60 -37 -75 -58 -13 -19 -49 -55 -81 -79 -95 -71 -106
-102 -114 -337 -9 -226 -12 -249 -46 -391 -33 -139 -28 -231 22 -385 19 -60
35 -122 35 -137 0 -34 16 -44 39 -24 24 22 39 20 43 -6 2 -15 11 -24 25 -26
21 -3 23 -9 23 -67 0 -40 5 -67 13 -72 6 -4 53 -8 102 -9 50 0 114 -7 143 -14
82 -19 154 -9 209 29 29 21 62 34 92 38 41 5 52 1 100 -32 71 -49 131 -58 167
-24 13 12 29 39 34 60 6 22 32 59 65 94 62 64 67 90 6 31 -34 -33 -40 -36 -43
-20 -3 15 -10 9 -33 -26 -64 -99 -88 -108 -187 -69 -31 12 -68 19 -89 17 -27
-2 -35 0 -32 10 9 23 42 33 143 42 72 6 110 14 136 29 19 12 41 21 49 21 7 0
27 13 43 28 60 56 159 99 272 117 58 9 131 27 163 40 31 12 57 19 57 16 0 -18
-79 -86 -123 -106 -55 -26 -50 -39 9 -24 62 17 110 56 161 133 86 129 113 155
160 156 12 0 40 18 62 40 22 22 46 40 54 40 9 0 23 3 33 7 12 4 15 3 10 -5 -4
-7 -2 -12 5 -12 7 0 1 -13 -14 -28 -31 -32 -34 -42 -12 -42 19 0 86 59 83 74
-3 12 73 108 128 161 46 44 69 96 65 143 -2 23 -18 12 -35 -27 -21 -44 -54
-83 -93 -106 -16 -9 -40 -34 -54 -54 -22 -31 -38 -41 -88 -55 -34 -9 -76 -30
-94 -45 -18 -15 -54 -40 -82 -55 -60 -32 -90 -58 -129 -110 -39 -51 -107 -81
-234 -101 -57 -8 -127 -24 -155 -35 l-52 -19 50 44 c50 46 113 72 224 95 77
15 124 45 175 111 57 73 74 84 194 124 54 18 112 40 131 49 50 26 164 144 199
207 34 60 111 153 120 145 3 -3 -9 -20 -27 -38 -30 -31 -40 -58 -22 -58 5 0
18 11 29 25 l20 25 6 -23 c20 -76 -3 -148 -66 -206 -41 -39 -42 -41 -40 -99 2
-56 0 -62 -28 -86 -17 -14 -49 -30 -71 -36 -45 -12 -164 -70 -194 -95 -20 -16
-19 -16 5 -11 67 16 71 15 25 -4 -27 -12 -57 -27 -65 -35 -8 -7 -30 -16 -47
-20 -38 -8 -44 -25 -10 -26 21 -1 21 -1 -3 -9 -14 -4 -40 -8 -57 -9 -51 -2
-39 -21 15 -22 l47 -2 -52 -6 c-65 -8 -76 -18 -29 -26 44 -9 38 -25 -10 -25
-19 0 -34 -4 -34 -10 0 -5 9 -10 19 -10 11 0 22 -4 25 -8 12 -20 -18 -34 -105
-47 -244 -40 -368 -98 -554 -260 -71 -62 -120 -87 -160 -79 -16 3 -65 23 -107
45 -98 50 -136 51 -203 5 -56 -38 -135 -112 -135 -126 0 -5 -24 -23 -52 -40
-43 -24 -64 -30 -115 -30 -65 0 -85 13 -35 23 31 7 70 32 61 41 -3 3 -31 -3
-62 -14 -34 -12 -78 -19 -114 -18 -62 2 -114 -22 -158 -72 -16 -18 -9 -16 34
11 43 26 68 34 115 36 58 4 60 3 36 -11 -14 -9 -44 -15 -68 -16 -37 0 -49 -7
-103 -56 -51 -47 -65 -55 -87 -50 -55 13 -81 28 -90 54 -10 25 -13 48 -28 198
-9 82 9 150 59 226 101 157 110 221 50 371 -51 128 -55 198 -17 309 30 89 33
139 24 408 -4 104 -2 120 19 168 27 59 106 137 149 147 49 10 89 42 128 100
37 57 51 66 146 100 89 31 165 119 197 230 7 22 16 83 20 137 10 117 25 144
106 200 93 64 114 87 131 146 11 37 31 71 64 107 54 60 66 99 74 247 8 140 53
202 187 257 42 18 86 42 97 54 12 12 40 63 63 112 74 159 88 170 246 191 109
14 162 35 203 79 14 15 43 41 64 56 48 36 106 38 191 9 104 -36 153 -23 312
79 132 84 159 88 257 36 79 -42 128 -46 156 -12 11 12 34 42 53 67 18 25 55
62 82 83 69 52 185 86 185 55z m10 -713 c16 -8 40 -30 54 -48 22 -29 26 -44
26 -104 0 -38 -7 -91 -16 -117 -17 -48 -17 -48 9 -70 l25 -21 -39 -75 c-21
-41 -39 -66 -39 -55 -1 20 -1 20 -17 0 -15 -19 -15 -18 -9 15 3 19 12 40 19
45 13 11 19 68 7 60 -8 -5 -23 32 -21 51 1 6 -6 11 -15 11 -12 0 -14 -7 -10
-30 5 -23 1 -36 -16 -54 l-21 -23 27 0 c23 0 27 -3 21 -17 -4 -10 -11 -45 -16
-78 -5 -33 -11 -72 -15 -87 -4 -17 -2 -28 4 -28 6 0 14 17 18 37 4 20 16 46
27 58 l19 20 -11 -23 c-10 -20 -14 -98 -9 -187 0 -11 -1 -27 -4 -35 -3 -8 -3
-12 -1 -9 4 7 71 -5 80 -15 3 -3 2 -18 -2 -33 -5 -15 -9 -34 -11 -42 -1 -7
-14 -25 -27 -40 -14 -14 -34 -60 -46 -101 -53 -181 -81 -238 -149 -310 -13
-14 -35 -48 -49 -77 -28 -60 -66 -96 -120 -114 -71 -23 -132 -59 -147 -87 -8
-15 -24 -57 -36 -92 -24 -71 -53 -108 -117 -150 -23 -14 -56 -38 -75 -53 -18
-14 -61 -46 -95 -72 -34 -25 -77 -68 -94 -95 -18 -27 -36 -47 -42 -43 -6 3 -7
2 -4 -4 4 -6 -2 -28 -12 -49 -10 -22 -25 -56 -32 -78 -8 -21 -25 -50 -39 -64
-26 -26 -138 -82 -164 -82 -8 0 -18 -5 -22 -12 -5 -8 2 -9 24 -5 56 11 34 -2
-40 -24 -125 -38 -155 -54 -184 -101 -65 -101 -106 -125 -274 -158 -37 -7 -89
-31 -155 -70 -54 -33 -102 -60 -107 -60 -16 0 -8 11 15 19 18 7 14 9 -22 9
-24 0 -46 3 -49 6 -4 5 62 10 106 9 22 -1 12 17 -10 18 -51 3 -113 -4 -119
-13 -6 -10 -47 -7 -104 7 -11 2 -29 6 -40 9 -11 2 -19 10 -17 17 2 8 0 11 -4
6 -4 -4 -16 1 -27 10 -19 17 -20 17 -9 -2 17 -34 71 -85 90 -85 14 0 12 4 -8
23 -14 12 -20 18 -13 14 6 -5 18 -5 24 -1 8 4 9 3 5 -4 -4 -7 6 -20 26 -32 36
-21 53 -26 43 -11 -3 6 15 3 40 -5 25 -9 45 -18 45 -21 0 -8 -104 8 -114 18
-6 5 -20 9 -32 9 -66 0 -190 85 -223 153 -54 112 -3 242 173 435 99 110 111
131 131 232 38 194 77 289 155 380 26 30 61 74 78 98 30 43 91 215 113 322 10
53 43 153 70 215 23 52 77 112 122 134 33 16 62 21 123 21 55 0 74 -3 64 -10
-13 -9 -13 -10 0 -10 13 0 13 -1 0 -10 -9 -6 -11 -10 -3 -10 7 0 10 -7 7 -15
-5 -11 -2 -13 10 -9 13 5 14 9 5 20 -9 11 -8 14 2 15 10 0 10 2 2 5 -14 6 -7
29 19 63 10 13 18 30 18 38 0 8 12 39 26 69 49 105 157 136 277 81 63 -30 118
-35 136 -13 10 12 4 14 -36 14 -27 1 -79 13 -118 27 -87 33 -139 30 -200 -13
-40 -28 -44 -29 -61 -13 -18 15 -18 15 0 -6 17 -21 17 -22 -2 -50 -11 -15 -32
-50 -46 -76 -32 -56 -62 -71 -126 -64 -120 14 -221 -78 -266 -240 -9 -35 -21
-63 -26 -63 -4 0 -8 41 -8 90 0 107 16 148 82 205 63 55 172 105 229 105 38 0
51 5 70 27 91 101 165 173 176 169 7 -3 12 0 10 6 -3 17 52 46 123 64 36 9 75
25 86 36 12 10 41 55 64 99 31 56 50 81 67 85 25 7 57 42 85 92 21 39 74 55
132 42 23 -5 77 -24 121 -41 133 -52 237 -38 314 44 19 20 39 33 45 30 6 -3 8
-3 4 2 -12 13 12 35 39 35 13 0 37 -7 53 -15z m-170 -30 c-24 -26 -108 -71
-116 -63 -4 5 123 86 135 88 3 0 -6 -11 -19 -25z m1106 -897 c11 -36 32 -50
80 -56 39 -4 49 -10 70 -43 13 -21 24 -41 24 -44 0 -12 -41 -3 -94 20 -31 14
-61 25 -66 25 -18 0 -10 -39 10 -53 22 -16 17 -27 -14 -27 -16 0 -18 -2 -7 -9
10 -6 1 -15 -36 -31 l-49 -23 13 -61 c16 -80 16 -86 -4 -86 -21 0 -6 -16 22
-23 11 -3 1 -5 -23 -6 l-43 -1 26 -27 25 -28 -27 -5 -28 -6 24 -6 24 -7 -24
-20 -24 -20 28 -1 c30 0 63 -14 85 -37 29 -28 37 -2 11 33 -28 35 70 32 146
-6 33 -16 52 -29 42 -30 -10 0 -27 5 -38 10 -10 6 -19 8 -19 5 0 -13 74 -36
99 -30 48 10 142 8 154 -4 8 -8 8 -11 -1 -11 -7 0 -12 -5 -12 -11 0 -6 7 -9
15 -5 9 3 25 -4 37 -16 12 -12 44 -27 72 -34 28 -6 59 -15 70 -19 15 -7 17 -5
11 13 -5 19 -2 22 18 22 17 0 35 -13 58 -44 19 -24 48 -52 64 -62 54 -31 122
-104 97 -104 -5 0 -15 11 -22 25 -14 26 -52 33 -80 15 -12 -8 -11 -10 8 -10
15 0 22 -6 22 -18 0 -21 32 -40 75 -44 26 -3 34 -11 63 -72 18 -37 35 -66 38
-63 3 3 1 14 -5 25 -6 12 -11 27 -11 34 1 7 8 0 16 -15 9 -16 13 -36 10 -44
-4 -9 3 -32 15 -52 33 -56 69 -164 69 -207 0 -22 -4 -55 -9 -74 -15 -57 -20
-110 -12 -110 10 0 29 94 38 184 3 36 10 66 15 66 14 0 3 -190 -12 -227 -10
-23 -11 -42 -4 -70 12 -49 38 -51 41 -3 1 19 12 75 24 123 16 66 20 102 14
140 -12 90 -12 90 18 98 32 9 32 10 10 -52 -16 -45 -16 -50 -1 -61 12 -10 17
-40 22 -142 3 -71 8 -131 10 -133 2 -3 14 0 25 7 27 14 26 8 -5 -40 -22 -34
-26 -48 -22 -90 4 -35 1 -50 -7 -50 -22 0 -65 -41 -65 -61 0 -20 8 -20 85 1
17 5 64 14 105 21 41 7 81 17 89 23 12 9 13 6 7 -17 -8 -32 4 -36 22 -7 7 11
23 20 36 20 13 0 26 7 30 15 3 8 14 15 23 15 10 0 26 9 36 20 20 23 57 27 57
5 0 -20 63 -20 80 0 10 12 10 21 2 40 -7 14 -16 26 -22 26 -5 1 -13 2 -17 3
-5 1 -35 5 -68 9 -67 9 -165 36 -165 47 0 3 21 16 48 27 43 19 44 21 19 22
-47 2 -95 -27 -102 -60 -7 -33 -9 -33 -36 -19 -10 6 -19 21 -19 35 0 13 -3 31
-6 40 -5 13 -8 14 -15 3 -6 -9 -9 -2 -9 20 0 31 -2 32 -40 32 -31 0 -43 5 -56
24 -19 30 -15 65 8 80 25 15 31 3 20 -38 -6 -20 -7 -36 -2 -36 4 0 13 20 19
45 9 37 15 45 34 45 13 0 31 6 41 13 21 15 37 86 31 137 -3 19 -7 56 -9 83 -3
26 -8 51 -11 56 -3 5 3 16 13 23 25 17 31 38 21 66 -13 34 29 85 81 101 61 18
107 49 131 87 11 19 34 41 50 49 26 14 41 45 21 45 -5 0 -16 6 -26 13 -15 11
-16 17 -5 40 10 21 17 25 36 21 15 -4 31 0 43 11 24 21 76 12 91 -17 12 -22
-9 -59 -80 -137 -45 -50 -57 -102 -43 -188 l9 -53 -43 -16 c-27 -10 -57 -14
-79 -11 -38 6 -46 -5 -17 -23 14 -9 12 -10 -10 -6 -82 17 -85 17 -49 1 47 -23
91 -30 91 -16 0 7 9 9 24 5 18 -4 35 2 59 20 l34 26 21 -23 c26 -27 32 -103 8
-94 -12 5 -51 -3 -211 -45 -38 -10 -105 -67 -105 -90 0 -6 17 3 38 18 32 25
49 30 122 35 47 4 98 10 114 14 27 7 28 6 20 -16 -5 -13 -8 -71 -6 -129 3
-122 -4 -138 -64 -151 l-39 -8 46 3 c45 3 46 3 60 -38 9 -25 21 -42 33 -44 16
-4 18 0 13 28 -4 17 -10 86 -13 153 l-6 122 36 87 c41 98 43 114 20 147 -16
22 -16 23 5 11 29 -15 61 -68 61 -101 0 -14 -12 -44 -26 -65 -34 -49 -41 -78
-48 -181 -5 -76 -4 -87 22 -139 27 -55 27 -56 7 -70 -47 -34 -55 -45 -55 -77
0 -18 8 -44 17 -57 10 -14 16 -34 14 -45 -3 -19 -2 -19 16 -2 20 17 53 23 53
9 0 -17 -47 -35 -99 -37 -60 -3 -81 -19 -81 -64 0 -14 -17 -51 -39 -82 -21
-31 -42 -67 -46 -80 -8 -25 -65 -85 -65 -68 0 6 -5 7 -11 4 -6 -4 -7 -19 -3
-37 6 -28 1 -36 -65 -97 -60 -56 -71 -71 -71 -99 0 -26 -4 -32 -20 -32 -27 0
-71 -23 -92 -49 -10 -12 -27 -21 -38 -21 -12 0 -36 -16 -54 -36 -32 -35 -37
-37 -122 -44 -49 -4 -97 -10 -106 -14 -14 -6 -18 -3 -19 15 -1 13 -1 27 0 31
0 4 -9 10 -20 13 -18 6 -20 12 -14 47 5 29 4 39 -4 33 -13 -7 -81 -15 -81 -9
0 2 9 13 21 25 26 26 20 44 -14 44 -15 -1 -27 2 -27 5 0 3 15 23 33 46 41 52
65 99 72 145 3 20 14 44 25 54 20 18 20 18 4 -13 -24 -49 -21 -174 4 -136 12
19 72 45 94 42 19 -3 21 -11 23 -98 2 -68 -1 -103 -12 -125 l-15 -30 23 22
c18 18 25 38 30 94 6 71 7 73 55 116 27 24 63 50 81 58 17 8 34 19 38 25 3 5
19 10 34 10 15 0 42 7 60 16 17 9 38 13 46 10 21 -8 54 42 36 54 -10 5 -7 11
9 23 33 23 16 39 -22 20 -26 -13 -41 -14 -93 -4 -80 14 -95 14 -95 -3 0 -8
-15 -16 -37 -20 -21 -3 -50 -12 -64 -20 -45 -23 -122 -38 -149 -28 -24 9 -24
10 17 27 61 24 83 75 83 187 0 47 -5 99 -10 115 -17 48 -73 65 -140 42 -39
-14 -50 -3 -50 53 l0 37 27 -25 c14 -13 28 -23 29 -21 11 10 -45 98 -87 137
-31 29 -49 54 -49 69 0 16 -4 21 -14 18 -8 -3 -17 1 -20 9 -10 27 -26 14 -26
-21 0 -35 22 -50 33 -22 4 7 6 6 6 -5 1 -9 12 -30 26 -46 l25 -30 -25 -6 c-29
-7 -33 -24 -7 -33 26 -10 32 -23 32 -76 0 -27 5 -57 10 -68 13 -23 53 -25 103
-4 74 31 84 18 91 -119 6 -120 -1 -139 -68 -170 -65 -31 -89 -57 -116 -126
-12 -30 -25 -57 -29 -60 -5 -3 -24 -39 -44 -80 -20 -41 -46 -81 -57 -88 -11
-7 -18 -18 -14 -24 4 -7 3 -8 -5 -4 -16 11 -61 -34 -61 -62 0 -15 -9 -26 -25
-32 -14 -5 -25 -15 -25 -22 0 -9 3 -9 12 0 7 7 18 12 26 12 7 0 33 14 58 31
41 28 47 29 79 19 19 -6 35 -17 35 -24 0 -8 17 -16 38 -20 22 -3 48 -16 61
-30 l24 -25 -32 -47 c-17 -26 -31 -58 -31 -70 0 -29 -52 -72 -145 -120 -108
-57 -153 -91 -175 -134 -24 -47 -34 -54 -66 -46 -19 5 -24 11 -19 26 5 15 0
23 -19 31 -27 12 -50 57 -44 85 2 10 19 22 43 28 59 17 105 81 105 147 0 59
13 89 40 89 10 0 22 5 25 10 8 13 5 13 -34 -1 -37 -13 -51 -41 -51 -103 0 -52
-25 -88 -81 -116 -45 -23 -75 -25 -86 -6 -6 11 -18 12 -59 3 -41 -8 -69 -7
-137 6 -47 9 -101 17 -119 17 l-33 -1 23 -19 23 -19 -38 -6 c-83 -15 -116 -28
-153 -61 -29 -26 -97 -108 -127 -153 -1 -2 -26 -9 -55 -16 -54 -12 -76 -38
-47 -56 18 -11 -26 -27 -109 -39 -64 -9 -109 -30 -65 -30 46 0 169 31 194 49
l25 19 -30 -61 c-17 -34 -38 -67 -46 -74 -24 -19 -81 -24 -145 -12 -156 28
-173 24 -220 -51 -36 -58 -53 -63 -139 -49 -70 12 -75 11 -168 -19 -107 -35
-117 -34 -208 17 -38 21 -69 31 -99 31 -38 0 -48 5 -85 44 -22 24 -49 46 -58
49 -29 10 -76 -13 -98 -48 -38 -61 -92 -80 -183 -65 -57 9 -142 55 -245 133
l-56 42 55 6 c30 4 84 5 120 2 53 -5 75 -1 114 16 35 15 74 22 144 25 53 2
127 13 166 24 39 11 102 25 140 31 39 7 116 30 172 52 128 49 213 71 261 67
l37 -3 -45 -14 c-28 -9 -38 -16 -27 -18 9 -3 17 -9 17 -14 0 -5 26 -9 57 -9
62 0 62 -10 1 -30 -21 -6 -38 -16 -38 -21 0 -5 -29 -22 -65 -38 -36 -16 -65
-32 -65 -34 0 -2 41 10 91 26 64 22 85 33 72 38 -15 5 -13 8 12 14 17 4 46 11
65 16 38 10 76 -8 88 -41 6 -16 15 -13 87 31 120 73 134 77 154 50 l18 -23 51
18 c47 17 70 43 40 45 -20 1 -61 9 -65 13 -2 1 42 21 96 45 55 23 149 69 209
101 61 33 117 60 126 60 9 0 16 5 16 10 0 16 -24 12 -73 -15 -25 -13 -66 -29
-89 -35 -24 -7 -69 -23 -101 -37 -43 -19 -61 -23 -69 -15 -8 8 -17 5 -32 -13
-12 -13 -45 -33 -75 -45 -62 -24 -90 -43 -179 -118 -61 -51 -81 -59 -90 -34
-2 8 8 12 27 12 17 0 31 4 31 9 0 5 -27 7 -61 4 -49 -5 -68 -2 -104 16 -23 12
-48 28 -55 36 -11 13 -6 15 37 15 40 0 62 8 123 45 41 24 85 45 97 45 13 0 52
16 89 35 36 19 72 35 80 35 25 0 74 30 74 45 0 35 131 76 181 56 21 -9 22 -10
4 -11 l-20 -1 20 -8 c23 -9 67 1 101 24 13 8 41 15 62 15 51 0 126 38 130 67
2 12 18 33 37 47 39 30 45 31 45 11 0 -27 26 -16 58 24 35 44 40 56 18 48 -19
-8 -37 15 -26 32 4 8 29 24 54 36 43 21 46 21 41 4 -8 -25 7 -24 30 1 10 11
26 20 37 20 10 0 19 6 19 13 1 6 3 19 4 27 1 8 3 23 4 33 0 9 12 23 26 29 20
9 25 18 25 49 0 24 8 47 23 66 13 15 29 42 36 60 11 27 10 34 -6 51 -58 61
-57 58 -28 124 32 70 31 141 -2 168 -10 8 -25 29 -32 47 -7 17 -19 34 -27 37
-9 3 -14 20 -14 44 0 27 -8 47 -30 72 -16 19 -29 30 -30 24 0 -7 -11 -14 -25
-16 -22 -5 -25 -2 -25 24 0 33 -56 98 -84 98 -9 0 -16 6 -16 13 0 6 -3 23 -7
36 -5 22 -4 23 18 18 26 -7 69 1 69 13 0 4 -18 10 -39 14 -23 3 -47 15 -58 29
-32 39 -75 67 -104 67 -35 0 -37 -12 -6 -33 12 -9 17 -16 10 -16 -6 -1 -25 10
-41 24 -20 17 -42 25 -68 25 -20 0 -35 3 -31 6 3 3 2 17 -3 30 -8 20 -6 24 8
24 13 1 11 6 -11 25 -35 31 -48 31 -103 -1 -58 -34 -120 -30 -182 11 -54 36
-44 48 44 52 36 2 75 8 86 14 16 9 24 7 38 -9 19 -21 132 -39 168 -28 11 4 28
-2 43 -15 21 -18 32 -20 86 -15 l62 7 23 -36 c28 -42 37 -47 108 -54 49 -5 55
-9 62 -33 5 -16 11 -40 16 -55 8 -31 54 -58 80 -48 15 6 15 8 -5 23 -11 9 -33
40 -47 69 -18 37 -37 58 -68 75 -28 15 -53 41 -74 77 -37 61 -76 91 -120 91
-33 0 -66 28 -83 70 -9 23 -10 23 -10 3 -1 -16 -6 -20 -21 -16 -12 3 -18 8
-15 11 3 3 -5 16 -17 29 -19 20 -20 25 -7 38 12 12 54 21 107 24 16 1 -26 37
-81 70 -50 31 -40 39 15 13 48 -25 59 -21 32 10 -10 12 -13 18 -6 14 7 -4 20
-2 28 5 11 9 32 7 100 -11 73 -20 87 -21 95 -9 6 10 9 6 9 -16 l0 -30 20 33
c22 36 26 38 46 17 20 -19 43 -19 106 2 49 16 50 16 27 30 -31 17 -147 15
-177 -3 -20 -13 -31 -11 -110 22 -101 42 -168 64 -198 64 -29 0 -41 -30 -14
-37 35 -9 21 -23 -24 -23 -26 0 -48 -6 -56 -15 -7 -8 -17 -12 -24 -8 -6 4 -38
11 -71 15 -33 4 -84 12 -113 19 -46 11 -51 15 -46 33 4 12 12 24 18 29 6 4
-31 6 -83 3 -52 -2 -103 -1 -113 2 -34 8 -13 25 37 30 60 5 86 17 79 37 -5 11
1 15 20 15 15 0 30 8 36 20 6 11 8 20 5 20 -3 0 -2 8 4 18 7 13 5 20 -12 29
-23 12 -25 11 28 28 30 9 3 75 -32 75 -18 0 -16 10 4 25 11 8 38 11 78 7 46
-3 70 0 96 13 47 24 69 45 69 65 0 26 -28 32 -64 15 -28 -15 -32 -14 -43 2 -7
9 -13 20 -13 25 0 14 37 78 42 73 3 -3 13 4 23 15 18 19 17 20 -3 20 -12 0
-22 -4 -22 -10 0 -5 -3 -9 -7 -8 -5 1 -25 -4 -45 -11 -35 -12 -38 -16 -38 -51
0 -27 -5 -39 -17 -42 -26 -7 -43 1 -43 20 0 12 3 13 11 5 21 -21 39 -3 39 39
0 32 -3 39 -15 34 -23 -8 -18 12 9 39 17 17 40 25 82 30 33 4 64 12 71 17 19
15 94 37 130 37 24 1 33 -4 39 -21z m754 -23 c35 -12 54 -13 99 -5 31 6 92 10
136 8 l79 -3 4 -40 c2 -22 4 -67 4 -99 l1 -60 -61 -12 c-64 -13 -132 -41 -144
-58 -4 -6 -8 8 -8 31 0 36 3 42 23 45 31 4 23 23 -10 23 -27 0 -28 -2 -33 -66
-5 -61 -9 -71 -48 -118 -40 -47 -48 -79 -16 -67 8 3 11 0 7 -10 -6 -16 -23
-19 -23 -4 0 17 -123 6 -151 -13 -31 -22 -41 -21 -75 6 l-29 22 22 -37 c25
-43 15 -58 -22 -34 -14 9 -25 12 -25 7 0 -20 -32 -19 -82 3 -45 20 -54 28 -56
52 -1 15 5 35 13 44 9 10 18 29 21 44 l4 26 -87 0 -88 0 28 26 c21 20 27 33
25 57 l-3 31 87 11 c125 15 122 29 -4 20 -97 -6 -108 -5 -108 10 0 9 -4 13
-10 10 -5 -3 -10 -3 -10 2 0 4 39 22 88 39 48 18 107 39 132 49 37 14 50 15
75 6 23 -10 26 -14 15 -21 -12 -8 -10 -10 7 -10 12 0 29 -7 38 -16 15 -15 19
-15 56 1 34 16 39 22 39 51 0 68 15 76 90 49z m-1110 -110 c0 -8 -7 -15 -16
-15 -14 0 -14 3 -4 15 7 8 14 15 16 15 2 0 4 -7 4 -15z m-67 -31 c-38 -16 -51
-34 -26 -34 28 -1 -58 -50 -87 -50 -34 0 -50 17 -50 52 0 27 2 28 48 29 26 0
65 4 87 8 58 12 64 11 28 -5z m614 -6 c-3 -8 -6 -5 -6 6 -1 11 2 17 5 13 3 -3
4 -12 1 -19z m-740 -162 c4 -22 7 -49 5 -58 -1 -10 7 -22 18 -28 27 -15 25
-27 -6 -34 -21 -6 -24 -9 -14 -21 7 -8 24 -15 39 -15 41 0 53 -17 35 -51 -17
-34 -17 -34 -49 -13 -20 13 -39 15 -99 9 -50 -4 -76 -11 -80 -21 -3 -8 -15
-14 -26 -14 -15 0 -20 -7 -20 -25 0 -14 -3 -25 -7 -25 -5 0 -21 -11 -37 -25
-16 -14 -34 -25 -39 -25 -6 0 -8 -2 -5 -5 15 -16 108 46 108 72 0 7 17 15 40
19 22 4 43 11 46 15 3 5 13 9 22 9 13 0 18 -10 20 -39 2 -34 -2 -42 -28 -61
-19 -13 -37 -19 -50 -15 -10 3 -30 0 -42 -7 -13 -7 -43 -13 -68 -14 -45 -2
-107 -20 -98 -29 3 -3 25 1 50 9 42 12 46 12 67 -10 l22 -22 59 24 c33 13 65
24 71 24 26 0 -26 -39 -79 -61 -31 -12 -84 -36 -117 -52 -53 -26 -65 -29 -97
-20 -21 6 -38 6 -38 2 0 -5 5 -9 10 -9 6 0 10 -4 10 -10 0 -14 -43 -13 -58 2
-17 17 -15 26 8 33 16 5 18 10 10 26 -13 22 -5 39 16 39 8 0 12 5 9 10 -4 6 5
20 19 31 14 11 31 30 38 42 11 21 11 21 -13 5 -71 -50 -113 -69 -143 -62 l-30
7 27 21 c23 18 37 46 23 46 -12 0 -85 -38 -97 -50 -34 -37 -59 -81 -58 -102 1
-20 2 -21 6 -3 7 29 32 45 72 46 20 0 45 4 56 8 11 5 26 6 33 3 7 -2 -11 -16
-41 -29 l-54 -24 4 -118 3 -117 -67 -51 c-38 -28 -85 -61 -105 -73 l-36 -21 5
21 c3 11 17 29 32 39 26 19 32 21 52 21 5 0 -3 11 -18 25 l-28 25 28 25 c15
14 39 25 53 25 34 0 64 17 64 37 0 11 -6 14 -22 8 -13 -3 -39 -10 -58 -15 -19
-5 -49 -25 -68 -44 -18 -20 -39 -36 -47 -36 -8 0 -27 -17 -42 -37 -15 -21 -32
-40 -38 -42 -5 -2 -23 -17 -39 -33 -30 -30 -29 -52 1 -26 35 29 46 33 34 9 -7
-11 -14 -57 -18 -101 -5 -72 -8 -80 -27 -81 -41 -3 -64 -6 -80 -12 -28 -11
-28 13 -1 53 31 44 54 104 55 139 0 13 11 43 25 66 18 31 33 44 56 49 43 8
119 85 119 120 0 21 7 29 30 37 42 15 27 30 -28 27 -34 -1 -55 -9 -74 -27 -31
-27 -45 -24 -29 7 6 12 11 28 11 38 0 9 18 32 40 51 22 19 56 58 75 88 37 55
65 72 125 77 23 2 38 10 45 23 5 11 17 19 26 17 21 -4 46 25 32 39 -12 12 -42
14 -64 5 -11 -5 -19 1 -27 18 -10 23 -7 32 36 91 45 62 49 65 81 59 41 -7 88
11 96 37 4 11 4 37 0 57 -6 36 -5 38 35 55 33 14 56 16 119 11 49 -4 85 -3 97
4 28 16 80 -37 91 -92z m1771 33 c2 -13 11 -30 20 -36 14 -12 14 -13 -1 -13
-22 0 -22 -12 1 -38 19 -24 72 -40 72 -23 0 6 -11 11 -24 11 -13 0 -29 7 -36
15 -11 13 -8 15 14 15 19 0 26 5 26 19 0 34 28 51 84 51 59 0 70 -8 105 -77
27 -54 26 -59 -4 -67 -14 -4 -29 -14 -32 -24 -4 -9 -19 -33 -34 -52 -19 -25
-28 -51 -31 -88 -3 -29 -1 -55 3 -58 17 -10 9 -20 -26 -37 -58 -27 -118 -37
-190 -30 -57 5 -65 8 -51 18 9 7 14 19 10 29 -4 11 1 19 17 25 30 11 82 66
103 109 13 26 23 32 49 32 43 1 71 18 102 64 20 30 23 41 14 52 -17 20 -57 17
-71 -6 -9 -14 -24 -20 -50 -20 -21 0 -38 -4 -38 -10 0 -5 14 -10 30 -10 48 0
33 -31 -22 -45 -15 -4 -35 -19 -44 -33 -24 -37 -53 -58 -95 -71 -27 -8 -39
-19 -45 -39 -12 -44 -12 -82 0 -82 6 0 4 -4 -4 -10 -21 -13 -10 -19 56 -28 55
-8 57 -9 27 -16 -45 -10 -51 -25 -13 -33 26 -5 31 -10 28 -28 -4 -21 -2 -21
45 -14 55 9 127 51 127 74 0 22 38 38 76 30 19 -3 34 -10 34 -14 0 -8 -56 -35
-97 -46 -13 -3 -39 -27 -60 -51 -38 -47 -98 -85 -121 -77 -7 3 -26 -1 -43 -7
-40 -17 -48 -5 -16 21 15 11 27 24 27 28 0 5 -20 11 -46 15 -47 6 -119 43
-148 75 -14 15 -24 17 -46 11 -16 -4 -32 -5 -36 -2 -7 8 -1 -33 10 -58 5 -11
0 -16 -15 -16 -14 0 -30 14 -46 37 -13 20 -42 51 -64 69 -23 18 -49 46 -59 63
-18 30 -18 31 1 55 10 14 19 30 19 37 0 6 27 19 60 28 66 19 89 44 72 81 -14
31 8 56 52 62 34 4 94 33 129 62 23 20 22 7 -4 -29 -36 -51 -3 -67 46 -22 19
19 38 26 56 25 15 -2 30 1 34 7 4 7 -5 11 -24 11 -24 0 -31 4 -31 20 0 11 -7
23 -15 26 -11 5 -3 14 29 34 24 15 47 33 51 40 11 17 49 -12 53 -41z m-1682
16 c-27 -25 -66 -34 -66 -15 0 10 55 38 79 39 8 1 2 -10 -13 -24z m1519 -55
c-3 -5 -10 -10 -16 -10 -5 0 -9 5 -9 10 0 6 7 10 16 10 8 0 12 -4 9 -10z
m-3765 -52 c-25 -48 -189 -298 -197 -298 -6 0 -4 3 99 163 49 76 94 149 100
163 6 13 13 22 15 20 3 -2 -5 -24 -17 -48z m2220 32 c0 -5 -4 -10 -10 -10 -5
0 -10 5 -10 10 0 6 5 10 10 10 6 0 10 -4 10 -10z m693 -17 c18 -10 33 -18 34
-18 1 -1 0 -10 -3 -22 -6 -23 -58 -39 -88 -27 -26 10 -32 52 -10 69 25 19 30
18 67 -2z m-1286 -41 c-7 -16 -20 -39 -30 -53 -17 -23 -17 -23 -2 15 14 36 33
66 41 66 2 0 -2 -13 -9 -28z m626 1 c-7 -2 -19 -2 -25 0 -7 3 -2 5 12 5 14 0
19 -2 13 -5z m2020 -45 c2 -7 1 -22 -4 -33 -4 -11 -8 -34 -8 -52 -1 -25 -7
-35 -28 -45 -23 -11 -28 -20 -28 -50 0 -37 -10 -60 -14 -33 -4 26 -3 78 3 120
2 22 5 48 5 58 1 10 9 17 21 17 11 0 23 7 26 15 7 18 20 19 27 3z m-1148 -68
c3 -5 -1 -10 -9 -10 -8 0 -18 5 -21 10 -3 6 1 10 9 10 8 0 18 -4 21 -10z
m-1545 -50 c0 -5 -7 -10 -16 -10 -8 0 -12 5 -9 10 3 6 10 10 16 10 5 0 9 -4 9
-10z m634 -115 c8 -31 45 -35 53 -5 7 27 38 25 50 -2 8 -19 23 -24 92 -34 92
-13 211 -45 211 -56 0 -5 -5 -8 -11 -8 -7 0 -10 -12 -7 -30 4 -25 1 -30 -15
-30 -16 0 -17 3 -7 14 9 12 5 16 -24 21 -47 9 -68 1 -36 -14 20 -9 11 -10 -51
-7 -84 6 -109 14 -189 65 -30 20 -64 36 -75 36 -13 0 -19 5 -16 15 3 8 5 25 5
38 1 29 12 28 20 -3z m-809 -15 c-7 -22 -52 -57 -61 -47 -10 9 25 65 43 69 24
6 26 3 18 -22z m1688 -27 c-7 -2 -21 -2 -30 0 -10 3 -4 5 12 5 17 0 24 -2 18
-5z m-1450 -10 c-7 -2 -21 -2 -30 0 -10 3 -4 5 12 5 17 0 24 -2 18 -5z m500
-67 c4 -10 -5 -15 -32 -18 -34 -3 -37 -1 -27 14 13 21 52 24 59 4z m202 -33
c22 -8 83 -17 136 -20 88 -5 96 -8 92 -24 -4 -14 3 -23 28 -33 31 -13 31 -14
10 -21 -13 -4 -28 -2 -34 4 -15 15 -27 14 -27 -3 0 -13 -49 -26 -100 -26 l-25
1 25 14 c14 8 34 15 45 15 14 1 7 8 -21 21 -39 17 -45 18 -84 4 -56 -20 -72
-19 -104 6 -19 15 -25 27 -21 40 4 11 1 27 -6 35 -11 13 -9 14 17 8 16 -4 47
-13 69 -21z m-315 -13 c16 0 -50 -97 -73 -108 -12 -6 -34 -13 -49 -16 -17 -4
-28 -13 -28 -22 0 -12 -6 -15 -22 -10 -13 3 -47 11 -76 17 -46 11 -52 15 -46
33 19 62 20 63 96 79 142 31 163 34 176 31 8 -2 18 -4 22 -4z m2400 -127 l0
-43 -24 15 c-27 18 -36 42 -36 99 l0 40 30 -34 c24 -26 30 -43 30 -77z m-820
55 c0 -13 -23 -5 -28 10 -2 7 2 10 12 6 9 -3 16 -11 16 -16z m-2341 -80 c-12
-18 -39 -41 -59 -51 -46 -22 -65 -60 -55 -116 4 -26 1 -60 -9 -96 -14 -46 -22
-57 -50 -69 -26 -11 -38 -25 -56 -70 -12 -31 -26 -56 -30 -56 -22 0 -14 32 18
79 37 52 37 54 42 174 4 90 10 130 22 152 36 63 44 68 115 75 38 4 71 8 76 9
4 0 -2 -14 -14 -31z m1486 22 c3 -5 1 -10 -4 -10 -6 0 -11 5 -11 10 0 6 2 10
4 10 3 0 8 -4 11 -10z m-531 -20 c5 -5 8 -21 8 -37 0 -15 3 -32 6 -38 4 -5 7
-16 9 -24 1 -8 4 -25 7 -37 5 -19 1 -24 -24 -29 -32 -7 -47 -38 -37 -75 6 -24
-3 -25 -73 -4 -60 18 -113 13 -141 -12 -10 -9 -25 -38 -34 -65 -20 -60 -59
-94 -135 -117 -38 -11 -61 -23 -64 -34 -2 -10 -12 -18 -21 -18 -60 0 -277
-136 -323 -202 -36 -51 -70 -84 -135 -127 -26 -18 -46 -38 -44 -44 5 -14 76
-10 94 5 7 6 13 8 13 6 0 -11 -83 -164 -102 -188 -29 -38 -97 -80 -128 -80
-15 0 -33 -6 -39 -14 -21 -25 90 12 129 42 34 28 77 85 130 172 13 22 30 40
37 40 7 0 13 6 13 13 0 7 14 26 31 43 17 16 57 63 89 104 32 41 66 83 76 92
32 28 128 75 170 82 82 15 112 30 170 82 67 61 93 66 194 39 64 -17 168 -19
225 -4 22 6 58 13 80 16 22 3 45 10 50 15 13 13 -152 3 -190 -12 -14 -6 -56
-10 -92 -10 l-66 0 62 40 c86 56 139 66 276 51 78 -9 120 -9 145 -1 54 16 75
12 108 -19 43 -39 34 -64 -26 -79 -88 -21 -112 -23 -134 -15 -20 6 -16 8 22
14 40 5 38 6 -25 7 l-70 2 33 -21 c28 -19 42 -21 100 -15 37 3 82 9 100 12 26
5 32 3 32 -10 0 -21 29 -91 35 -84 3 2 0 20 -6 39 -15 48 -19 79 -9 79 5 0 27
-17 50 -39 36 -33 40 -42 34 -67 -10 -41 -35 -76 -49 -70 -8 3 -11 -2 -8 -15
7 -27 17 -24 43 15 26 36 54 38 78 4 7 -10 26 -25 42 -33 17 -9 33 -28 40 -49
12 -38 37 -51 77 -41 20 5 31 -1 55 -25 24 -26 29 -38 26 -73 -2 -23 -8 -41
-14 -40 -6 1 -26 -24 -45 -55 -33 -54 -34 -60 -31 -144 2 -48 -2 -105 -7 -126
-10 -34 -65 -101 -84 -101 -4 0 -31 -5 -61 -11 -60 -12 -112 -54 -87 -70 11
-6 9 -17 -14 -57 -51 -89 -76 -106 -157 -104 -41 1 -53 -5 -104 -46 -50 -41
-62 -46 -99 -44 -62 3 -152 -34 -170 -69 -11 -21 -29 -33 -63 -44 -64 -20
-159 -59 -262 -107 -74 -34 -101 -41 -195 -49 -124 -12 -166 -23 -280 -73 -44
-19 -125 -45 -180 -57 -55 -11 -124 -28 -154 -37 -35 -10 -70 -13 -100 -9
-118 16 -145 17 -226 1 -78 -14 -94 -14 -176 0 -114 19 -137 19 -234 -5 -44
-11 -114 -23 -155 -26 -124 -11 -115 -25 11 -18 99 6 238 -1 227 -11 -1 -1
-25 -6 -53 -9 -27 -4 -71 -14 -97 -23 -40 -14 -57 -15 -132 -4 -48 6 -124 22
-169 35 -45 13 -95 27 -110 30 -16 4 -40 18 -53 31 -48 48 -20 149 43 157 23
3 29 10 39 51 25 100 80 151 190 178 80 19 83 22 81 82 -1 67 6 79 40 66 15
-5 39 -7 55 -4 23 5 28 11 23 26 -5 15 1 23 29 34 19 8 45 15 56 15 11 0 40
18 65 41 40 37 46 40 60 25 12 -12 22 -13 43 -5 39 15 116 1 179 -32 62 -33
72 -34 96 -16 13 9 16 20 11 45 -5 27 -11 32 -34 32 -15 0 -33 7 -40 15 -7 8
-25 15 -40 15 -17 0 -41 13 -65 35 l-38 34 28 11 c16 6 55 10 87 9 57 -2 78 4
64 18 -4 4 -36 9 -72 11 l-66 4 26 23 c15 13 26 33 26 48 0 18 7 26 24 31 27
7 39 30 30 58 -4 12 -11 17 -21 14 -9 -4 6 15 33 42 27 27 61 62 75 79 15 16
49 37 75 47 124 45 164 73 164 119 0 10 13 34 29 53 16 18 35 48 41 67 8 19
28 43 49 57 157 101 160 104 168 189 7 66 30 117 79 170 56 63 127 88 269 97
157 10 174 13 219 38 26 14 55 26 64 26 12 0 23 13 31 36 l13 36 62 -7 c33 -3
65 -10 70 -15z m1646 -60 c0 -42 -4 -52 -25 -66 -14 -9 -27 -15 -28 -13 -16
26 -47 103 -43 107 11 10 36 -21 37 -47 1 -17 4 -11 10 18 8 43 25 65 41 55 4
-3 8 -27 8 -54z m-1565 40 c19 -7 19 -8 -5 -18 -28 -11 -40 -7 -40 14 0 15 14
17 45 4z m318 -7 l32 -18 -53 -3 c-51 -3 -82 8 -82 29 0 16 70 10 103 -8z
m1111 -18 c3 -8 1 -15 -4 -15 -6 0 -10 7 -10 15 0 8 2 15 4 15 2 0 6 -7 10
-15z m-2534 -80 c-17 -33 -20 -35 -20 -15 0 21 28 65 36 57 2 -2 -5 -21 -16
-42z m1228 -162 c-10 -2 -26 -2 -35 0 -10 3 -2 5 17 5 19 0 27 -2 18 -5z
m-343 -88 c29 -13 28 -13 -34 -14 -55 -1 -62 1 -51 14 15 18 45 19 85 0z
m-224 -109 c-12 -15 -101 -49 -108 -42 -8 8 107 68 116 60 2 -2 -2 -10 -8 -18z
m-2463 -47 c-16 -47 -3 -154 26 -203 28 -49 77 -94 126 -118 l35 -17 -60 6
c-85 7 -140 36 -170 87 -39 67 -31 144 28 244 24 40 29 41 15 1z m4567 -55
c20 7 7 -23 -24 -57 -14 -16 -26 -37 -26 -48 0 -38 -20 -23 -23 18 -2 30 5 59
25 101 l28 58 3 -39 c2 -28 7 -37 17 -33z m-2489 -129 c-36 -44 -61 -63 -34
-27 45 61 62 81 66 77 3 -2 -12 -25 -32 -50z m2558 26 c18 -7 16 -9 -14 -19
-42 -15 -40 -16 -40 8 0 21 19 25 54 11z m-3380 -78 c-13 -23 -24 -30 -46 -29
-34 1 -37 13 -4 22 14 3 32 14 42 25 24 27 28 17 8 -18z m100 6 c-24 -26 -30
-28 -33 -13 -3 19 23 44 48 44 10 0 5 -10 -15 -31z m228 3 c-7 -2 -10 -8 -6
-13 3 -5 0 -9 -6 -9 -22 0 -70 -41 -70 -59 0 -20 -43 -74 -110 -137 -177 -168
-208 -190 -284 -200 l-43 -6 -7 55 c-8 63 -2 80 71 187 49 71 53 74 101 83 33
7 40 -1 20 -21 -6 -6 -9 -14 -6 -18 13 -12 48 8 114 67 70 62 75 64 164 77 50
8 91 4 62 -6z m17 -56 c-7 -7 -79 -35 -79 -31 0 7 54 34 69 35 8 0 12 -2 10
-4z m-1194 -46 c7 -12 -2 -12 -30 0 -19 8 -19 9 2 9 12 1 25 -3 28 -9z m3296
-181 l-9 -34 -1 31 c-1 17 2 34 6 37 12 13 14 -1 4 -34z m610 -89 c-30 -26
-49 -26 -26 0 10 11 25 20 34 20 12 -1 10 -5 -8 -20z m-3081 -30 c-8 -5 -19
-10 -25 -10 -5 0 -3 5 5 10 8 5 20 10 25 10 6 0 3 -5 -5 -10z m-190 -179 c-16
-31 -81 -79 -127 -95 l-43 -15 3 33 c2 18 11 44 20 57 21 29 22 18 2 -21 -19
-37 -15 -37 37 -2 22 15 52 35 67 44 36 25 55 24 41 -1z m2401 -44 c-10 -9
-11 -8 -5 6 3 10 9 15 12 12 3 -3 0 -11 -7 -18z m-2632 -124 c-27 -53 -44 -65
-25 -18 14 31 30 54 42 55 1 0 -7 -17 -17 -37z m2572 0 c-35 -64 -124 -126
-98 -68 7 14 18 25 24 25 7 0 27 13 45 30 39 34 42 36 29 13z m39 -300 c75 -7
89 -17 125 -85 l26 -50 -32 -49 c-37 -58 -98 -103 -175 -130 -47 -17 -58 -17
-91 -6 -117 42 -134 46 -158 37 -33 -13 -85 -2 -112 23 -12 11 -29 17 -37 14
-25 -10 -19 7 15 39 17 16 47 53 66 82 20 29 50 64 68 78 39 29 169 66 210 58
17 -3 59 -8 95 -11z m-1987 -280 c-7 -2 -19 -2 -25 0 -7 3 -2 5 12 5 14 0 19
-2 13 -5z"/>
<path d="M4432 5433 c-27 -24 -94 -123 -83 -123 4 0 6 -11 3 -25 -5 -31 13
-33 21 -3 4 12 9 19 13 16 10 -11 -36 -79 -48 -72 -7 4 -8 2 -4 -4 4 -7 2 -12
-3 -12 -6 0 -11 -4 -11 -10 0 -5 8 -10 18 -10 26 0 73 53 81 91 4 22 16 38 36
49 35 19 54 53 51 88 -4 32 -44 40 -74 15z m42 -46 c-3 -8 -12 -18 -19 -21
-16 -6 -8 24 9 36 14 9 18 4 10 -15z m-73 -30 c-10 -9 -11 -8 -5 6 3 10 9 15
12 12 3 -3 0 -11 -7 -18z"/>
<path d="M4106 5403 c-6 -15 -8 -15 -17 -3 -8 13 -10 13 -19 0 -14 -19 -5 -92
15 -128 14 -26 14 -25 8 23 -5 45 -4 48 9 31 14 -18 16 -16 26 27 7 25 12 51
12 56 0 18 -27 12 -34 -6z"/>
<path d="M4152 5340 c0 -14 2 -19 5 -12 2 6 2 18 0 25 -3 6 -5 1 -5 -13z"/>
<path d="M3690 5343 c-13 -3 -45 -22 -70 -43 -25 -20 -68 -49 -96 -63 -28 -14
-64 -37 -80 -50 -16 -13 -38 -29 -49 -35 -18 -10 -16 -11 16 -12 29 0 38 5 47
25 7 15 40 39 89 65 43 22 89 49 103 60 26 20 107 29 146 16 19 -6 22 -16 27
-104 3 -68 1 -109 -9 -137 -21 -61 -16 -66 11 -10 20 41 25 68 27 155 3 101 2
105 -19 108 -12 2 -27 10 -33 18 -12 14 -57 16 -110 7z"/>
<path d="M4046 5317 c-5 -9 -5 -39 0 -65 4 -26 7 -49 7 -52 0 -3 -3 -21 -6
-40 -5 -30 -4 -32 5 -13 8 17 19 22 45 21 38 -1 63 16 47 32 -8 8 -19 7 -39 0
-15 -6 -29 -9 -31 -7 -2 2 -8 35 -12 73 -6 46 -11 63 -16 51z"/>
<path d="M3765 5268 c4 -13 10 -57 12 -98 4 -51 8 -69 14 -55 13 33 10 103 -5
140 -16 39 -33 48 -21 13z"/>
<path d="M3878 5284 c-5 -4 -8 -29 -8 -55 0 -26 -7 -84 -16 -129 -16 -89 -14
-129 5 -65 26 91 40 271 19 249z"/>
<path d="M4147 5259 c-20 -35 -15 -49 11 -33 17 11 30 64 15 64 -4 0 -16 -14
-26 -31z"/>
<path d="M3905 5248 c5 -18 11 -80 14 -138 l6 -105 14 60 c14 64 10 144 -10
188 -17 38 -33 35 -24 -5z"/>
<path d="M3112 5205 c-17 -14 -33 -25 -36 -25 -3 0 -29 -24 -58 -54 l-53 -54
-106 5 c-102 5 -107 4 -123 -18 -20 -29 -16 -32 20 -14 25 12 41 13 91 3 55
-10 68 -9 125 11 66 24 98 50 98 82 0 26 43 35 97 21 57 -16 61 -15 68 8 19
59 -66 83 -123 35z"/>
<path d="M3968 5143 c-3 -43 -3 -80 -1 -82 1 -2 10 12 18 32 16 38 19 84 9
111 -13 34 -22 13 -26 -61z"/>
<path d="M3570 5174 c0 -14 10 -35 23 -46 16 -14 18 -21 9 -25 -9 -4 -10 -8
-2 -18 6 -8 12 -38 13 -69 3 -62 10 -74 32 -56 18 15 10 31 -12 23 -13 -5 -15
-1 -9 28 4 19 8 43 10 54 1 11 6 28 10 37 8 17 -8 58 -23 58 -5 0 -11 9 -14
20 -8 30 -37 25 -37 -6z"/>
<path d="M4547 5123 c-9 -26 -14 -50 -11 -52 10 -11 54 21 60 44 17 67 -27 74
-49 8z"/>
<path d="M3260 5116 c0 -34 77 -49 88 -17 3 9 -1 11 -14 7 -11 -3 -31 1 -46 9
-23 11 -28 11 -28 1z"/>
<path d="M3517 5094 c-3 -3 -2 -17 4 -31 5 -13 9 -48 10 -76 0 -34 3 -45 8
-33 17 45 0 161 -22 140z"/>
<path d="M3400 5073 c-15 -3 -40 -24 -61 -52 -39 -51 -89 -81 -136 -81 -18 0
-33 -8 -42 -22 -13 -22 -13 -23 6 -5 13 11 36 17 69 17 56 0 101 23 135 69 13
17 30 31 38 31 9 0 24 12 34 25 20 28 18 28 -43 18z"/>
<path d="M3487 4973 c3 -38 7 -70 9 -72 8 -9 15 73 10 104 -12 60 -24 38 -19
-32z"/>
<path d="M3745 5010 c-4 -12 -5 -24 -2 -27 3 -2 8 5 12 17 4 12 5 24 2 27 -3
2 -8 -5 -12 -17z"/>
<path d="M3380 4941 c0 -5 9 -28 20 -52 22 -50 28 -26 6 26 -14 33 -26 45 -26
26z"/>
<path d="M3417 4933 c3 -10 9 -22 14 -28 4 -5 12 -30 19 -54 6 -23 13 -41 15
-39 9 8 -30 132 -43 136 -8 2 -10 -2 -5 -15z"/>
<path d="M3607 4913 c-10 -9 -8 -56 3 -73 7 -12 12 -12 22 -2 9 9 9 12 -4 12
-11 0 -14 7 -10 25 2 14 8 25 13 25 5 0 9 5 9 10 0 11 -23 14 -33 3z"/>
<path d="M4674 4889 l-29 -32 30 7 c36 9 60 30 51 45 -11 17 -20 13 -52 -20z"/>
<path d="M3521 4892 c-7 -13 -11 -26 -8 -28 8 -8 29 25 25 38 -3 8 -9 4 -17
-10z"/>
<path d="M3354 4855 c6 -19 13 -30 14 -25 6 16 -7 60 -17 60 -4 0 -3 -16 3
-35z"/>
<path d="M4736 4824 c-18 -17 -22 -54 -6 -54 6 0 10 7 10 15 0 9 11 21 25 27
14 6 25 15 25 20 0 14 -38 9 -54 -8z"/>
<path d="M2643 4798 c-32 -37 -63 -85 -63 -100 0 -7 10 3 21 22 12 19 35 50
52 68 17 17 26 32 21 32 -6 0 -20 -10 -31 -22z"/>
<path d="M3409 4788 c-3 -22 -1 -34 4 -29 5 5 7 21 5 37 -3 27 -4 26 -9 -8z"/>
<path d="M3007 4786 c-10 -8 -43 -17 -73 -21 -53 -6 -57 -9 -89 -59 -18 -29
-54 -68 -79 -87 -57 -43 -58 -53 -3 -27 53 25 73 43 103 90 18 28 34 40 66 49
68 18 86 27 98 49 12 23 3 26 -23 6z"/>
<path d="M3452 4730 c0 -19 2 -27 5 -17 2 9 2 25 0 35 -3 9 -5 1 -5 -18z"/>
<path d="M2350 4679 c-16 -16 -32 -40 -36 -52 -4 -12 -15 -33 -25 -46 -11 -14
-19 -38 -18 -60 l1 -36 12 35 c6 19 19 46 29 60 9 13 17 30 17 36 0 6 20 30
45 53 37 34 41 41 24 41 -12 0 -34 -14 -49 -31z"/>
<path d="M2517 4595 c-18 -23 -44 -39 -84 -52 -53 -18 -61 -24 -86 -71 -16
-29 -43 -104 -61 -167 -19 -65 -45 -132 -60 -153 -15 -20 -42 -58 -60 -83 -22
-31 -37 -68 -45 -110 -9 -49 -25 -83 -66 -144 -52 -77 -82 -147 -56 -131 6 4
11 12 11 17 0 6 28 53 62 106 39 60 68 118 79 160 20 71 33 95 83 151 46 52
52 66 82 191 28 120 54 169 99 189 66 28 80 39 109 80 36 51 31 64 -7 17z"/>
<path d="M2691 4554 c0 -11 3 -14 6 -6 3 7 2 16 -1 19 -3 4 -6 -2 -5 -13z"/>
<path d="M4597 4472 c-10 -10 -17 -29 -17 -43 1 -24 1 -24 25 6 37 45 30 79
-8 37z"/>
<path d="M2535 4424 c-16 -8 -37 -21 -45 -28 -8 -8 -31 -22 -50 -31 -19 -10
-41 -25 -48 -34 -25 -31 -59 -107 -66 -145 -9 -46 -25 -73 -83 -141 -32 -37
-50 -71 -68 -129 -14 -44 -23 -81 -21 -83 1 -2 20 34 40 80 20 46 55 105 77
132 22 26 59 89 83 139 50 103 105 172 180 222 53 35 53 45 1 18z"/>
<path d="M2252 4405 c-4 -64 -25 -109 -73 -160 -40 -43 -49 -58 -49 -89 0 -44
-23 -102 -54 -136 -13 -14 -42 -50 -64 -81 l-41 -57 41 22 c27 14 44 31 49 48
4 14 25 49 48 78 22 28 41 57 41 63 0 7 25 62 55 122 52 101 56 115 52 165 -2
30 -4 42 -5 25z"/>
<path d="M4865 4160 c3 -5 8 -10 11 -10 2 0 4 5 4 10 0 6 -5 10 -11 10 -5 0
-7 -4 -4 -10z"/>
<path d="M2084 3735 c-9 -13 -14 -28 -12 -33 1 -5 13 6 25 24 12 19 18 34 13
34 -5 0 -17 -11 -26 -25z"/>
<path d="M1903 3355 c-28 -20 -87 -95 -75 -95 6 0 20 16 33 36 12 20 36 45 53
55 17 10 26 19 21 19 -6 0 -20 -7 -32 -15z"/>
<path d="M1972 3214 c-7 -8 -8 -14 -3 -14 10 0 25 19 20 25 -2 1 -10 -3 -17
-11z"/>
<path d="M1744 3148 c-44 -65 -48 -72 -35 -64 15 10 74 96 68 102 -2 2 -17
-15 -33 -38z"/>
<path d="M1877 3050 c-9 -11 -13 -20 -8 -20 11 0 35 29 29 35 -2 2 -12 -4 -21
-15z"/>
<path d="M1616 2969 c-9 -16 -31 -39 -47 -51 -16 -12 -29 -26 -29 -31 0 -15
52 32 78 69 13 20 22 37 20 39 -2 3 -12 -9 -22 -26z"/>
<path d="M1621 2663 l-22 -38 26 28 c14 15 25 32 25 38 0 17 -8 9 -29 -28z"/>
<path d="M1569 2582 c-3 -20 -2 -29 4 -23 5 5 7 19 5 32 -3 20 -5 19 -9 -9z"/>
<path d="M1528 2540 c-4 -14 -7 -45 -7 -70 l1 -45 9 45 c5 25 8 56 7 70 l-3
25 -7 -25z"/>
<path d="M1498 2494 c-5 -4 -8 -20 -8 -35 0 -15 -5 -29 -10 -31 -16 -5 -23
-106 -12 -153 9 -37 10 -35 12 40 2 57 4 71 9 50 6 -25 9 -20 15 36 8 70 6
106 -6 93z"/>
<path d="M1432 2305 c-1 -16 3 -48 7 -70 l9 -40 0 45 c0 25 -4 56 -8 70 -8 24
-8 24 -8 -5z"/>
<path d="M2510 1968 c0 -5 30 -8 67 -8 36 0 63 3 60 7 -9 9 -127 10 -127 1z"/>
<path d="M1640 1857 c0 -4 -12 -5 -27 -2 -26 6 -25 4 7 -14 38 -22 36 -27 -4
-11 -33 12 -33 0 1 -24 22 -16 28 -17 37 -5 7 9 34 15 75 16 80 3 97 8 82 27
-6 7 -9 15 -6 18 3 3 -33 4 -80 4 -47 -1 -85 -4 -85 -9z"/>
<path d="M1643 1610 c-40 -16 -30 -18 72 -10 16 1 -18 20 -35 19 -8 0 -25 -4
-37 -9z"/>
<path d="M1645 1554 l-40 -24 36 0 c36 0 59 14 59 37 0 17 -8 16 -55 -13z"/>
<path d="M1366 1560 c7 -6 40 -14 75 -17 86 -7 67 13 -21 22 -50 5 -62 4 -54
-5z"/>
<path d="M1260 1520 c-12 -8 -9 -10 12 -10 15 0 30 5 33 10 8 13 -25 13 -45 0z"/>
<path d="M3740 4756 c0 -2 7 -6 15 -10 8 -3 15 -1 15 4 0 6 -7 10 -15 10 -8 0
-15 -2 -15 -4z"/>
<path d="M3802 4746 c14 -10 15 -15 5 -26 -10 -10 -8 -12 6 -7 22 8 63 -30 73
-67 3 -14 10 -26 16 -26 5 0 7 3 5 8 -2 4 -12 24 -22 44 -9 21 -26 40 -37 44
-11 3 -17 8 -14 11 7 7 -24 32 -39 32 -5 0 -2 -5 7 -13z"/>
<path d="M3685 4730 l-30 -8 28 -1 c23 -1 26 -3 15 -15 -7 -7 -20 -11 -28 -8
-12 4 -12 2 -3 -8 9 -10 17 -8 39 9 16 12 21 21 13 22 -8 1 -3 5 11 9 20 6 21
8 5 8 -11 0 -33 -4 -50 -8z"/>
<path d="M3765 4720 c-3 -5 -2 -10 4 -10 5 0 13 5 16 10 3 6 2 10 -4 10 -5 0
-13 -4 -16 -10z"/>
<path d="M4162 4694 c-12 -8 -27 -12 -34 -8 -6 4 -8 3 -5 -3 12 -20 -48 -31
-120 -23 -39 4 -76 11 -82 14 -6 4 -11 3 -11 -1 0 -17 24 -33 48 -33 13 0 20
-4 17 -10 -10 -16 45 -11 105 10 60 20 73 21 35 0 -32 -17 -32 -30 1 -30 14 0
23 4 19 10 -3 6 -2 10 4 10 6 0 20 18 31 40 23 45 23 46 -8 24z"/>
<path d="M4225 4687 c-11 -12 -20 -26 -20 -30 0 -4 -7 -12 -15 -17 -8 -5 -10
-10 -4 -10 13 0 74 59 74 72 0 14 -14 7 -35 -15z"/>
<path d="M4322 4648 c-57 -76 -84 -98 -138 -113 -39 -10 -45 -14 -30 -20 17
-8 29 -5 90 20 13 6 17 5 13 -3 -4 -6 -29 -18 -56 -27 -27 -9 -55 -23 -63 -32
-12 -15 -10 -15 17 -1 17 9 45 19 64 23 23 5 38 17 50 38 9 16 28 44 42 61 30
36 63 96 56 103 -3 2 -23 -19 -45 -49z"/>
<path d="M4260 4641 c-40 -41 -54 -50 -67 -42 -19 10 -73 -12 -73 -30 0 -6 5
-7 13 -2 6 4 34 10 62 13 40 4 52 10 62 30 7 14 25 35 40 47 15 12 24 25 20
29 -4 4 -29 -16 -57 -45z"/>
<path d="M3733 4610 c-30 -18 -53 -48 -53 -68 0 -6 16 6 35 25 35 35 38 36 93
30 31 -3 67 -9 80 -13 17 -5 21 -3 17 8 -16 40 -119 51 -172 18z"/>
<path d="M3506 4492 c-3 -5 1 -9 9 -9 8 0 12 4 9 9 -3 4 -7 8 -9 8 -2 0 -6 -4
-9 -8z"/>
<path d="M3560 4486 c0 -2 9 -6 20 -9 11 -3 18 -1 14 4 -5 9 -34 13 -34 5z"/>
<path d="M3614 4474 c5 -14 1 -16 -24 -10 -19 3 -29 2 -25 -4 3 -5 24 -9 46
-8 37 1 38 2 23 20 -21 22 -28 23 -20 2z"/>
<path d="M3508 4463 c6 -2 18 -2 25 0 6 3 1 5 -13 5 -14 0 -19 -2 -12 -5z"/>
<path d="M3698 4446 c-12 -9 -37 -10 -89 -5 -69 8 -75 7 -107 -17 -18 -14 -32
-28 -30 -30 2 -2 24 3 48 10 35 10 60 11 108 3 53 -8 66 -7 79 5 8 9 13 23 11
31 -2 13 -6 13 -20 3z"/>
<path d="M3470 4430 c-14 -11 -21 -20 -17 -20 5 0 20 9 34 20 14 11 22 20 17
20 -5 0 -20 -9 -34 -20z"/>
<path d="M3645 4291 c-3 -2 -5 -11 -5 -20 0 -10 3 -12 8 -5 4 6 16 16 27 22
19 10 19 11 -3 9 -13 -1 -25 -3 -27 -6z"/>
<path d="M3249 4253 c-22 -12 -20 -13 30 -9 30 3 63 0 72 -5 11 -6 20 -5 24 1
3 5 -2 10 -13 10 -10 0 -22 3 -26 7 -13 13 -62 11 -87 -4z"/>
<path d="M3635 4242 c3 -3 -3 -11 -13 -18 -9 -7 -12 -14 -6 -14 6 0 18 8 27
18 15 16 15 19 2 19 -8 0 -13 -3 -10 -5z"/>
<path d="M3390 4229 c0 -5 5 -7 10 -4 6 3 10 8 10 11 0 2 -4 4 -10 4 -5 0 -10
-5 -10 -11z"/>
<path d="M3240 4220 c-21 -7 -18 -8 18 -9 50 -1 116 -26 107 -41 -3 -5 2 -10
12 -10 11 0 23 -4 29 -9 8 -8 132 -31 168 -31 28 0 17 18 -14 25 -16 4 -32 11
-35 16 -4 5 -26 9 -51 9 -42 0 -44 1 -34 21 9 16 17 19 43 14 21 -5 29 -4 22
3 -5 5 -28 12 -50 15 -26 4 -35 3 -25 -3 26 -16 6 -18 -45 -4 -56 15 -107 16
-145 4z"/>
<path d="M3553 4219 c-18 -5 -33 -14 -33 -19 0 -4 -8 -11 -17 -13 -16 -4 -16
-5 -1 -6 9 0 23 6 32 14 8 8 21 15 28 15 7 0 20 5 28 10 18 12 6 11 -37 -1z"/>
<path d="M3750 4220 c0 -29 30 -60 58 -59 l27 1 -27 11 c-16 6 -28 14 -28 17
0 3 -7 15 -15 26 -11 15 -14 16 -15 4z"/>
<path d="M3598 4188 c33 -16 27 -29 -8 -17 -16 6 -35 9 -42 6 -7 -3 -3 -6 10
-6 13 -1 21 -5 18 -10 -10 -15 33 -20 45 -5 14 17 -5 44 -30 43 -11 0 -10 -3
7 -11z"/>
<path d="M4260 4151 c0 -41 3 -50 21 -54 17 -4 19 -3 10 6 -6 6 -11 30 -11 54
0 24 -4 43 -10 43 -5 0 -10 -22 -10 -49z"/>
<path d="M3325 4144 c36 -28 61 -36 30 -10 -16 14 -34 26 -40 26 -5 -1 -1 -8
10 -16z"/>
<path d="M3515 4100 c28 -12 95 -12 95 0 0 6 -25 10 -57 9 -42 0 -52 -3 -38
-9z"/>
<path d="M3235 4060 c11 -5 50 -9 87 -9 65 -1 118 -15 118 -33 0 -11 -17 -10
-25 2 -11 18 -64 11 -75 -10 -6 -11 -7 -20 -1 -20 5 0 11 7 15 15 3 8 13 15
23 14 16 0 16 -1 -2 -8 -13 -5 -5 -8 27 -8 40 -1 51 -6 77 -35 17 -18 30 -37
31 -43 0 -5 -5 -3 -10 5 -8 12 -10 12 -10 -5 -1 -18 -2 -18 -11 3 -5 13 -13
20 -19 17 -6 -4 -8 -11 -4 -17 7 -11 -42 -66 -71 -78 -20 -9 -20 -9 0 -9 11
-1 31 6 43 15 13 9 25 14 28 11 3 -2 -18 -21 -46 -42 -52 -38 -65 -54 -29 -34
15 7 24 8 32 0 7 -7 2 -13 -17 -21 -15 -5 -31 -10 -35 -10 -5 0 -14 -7 -21
-15 -10 -12 -10 -15 1 -15 8 0 24 -3 37 -6 15 -5 22 -2 22 8 0 8 11 21 25 28
14 7 25 19 25 27 0 7 5 13 11 13 6 0 25 6 42 14 18 8 41 16 52 18 42 7 85 114
53 134 -17 11 -38 -25 -38 -67 0 -35 -12 -49 -41 -49 -13 0 -11 34 2 47 9 9 9
20 -1 42 -7 17 -16 31 -20 31 -4 0 -15 15 -25 34 -30 55 -59 66 -172 65 -64 0
-91 -3 -78 -9z m255 -196 c0 -13 4 -24 9 -24 5 0 7 10 5 23 -4 20 -4 20 5 2 4
-11 7 -23 5 -26 -7 -12 -42 -17 -55 -8 -12 7 -12 9 0 9 9 0 11 8 7 24 -3 12
-3 26 1 29 11 11 23 -4 23 -29z"/>
<path d="M3360 3966 c0 -4 9 -6 20 -3 17 4 18 2 9 -15 -10 -18 -9 -18 10 -8
34 18 24 -6 -16 -39 -41 -34 -38 -39 7 -16 33 17 60 52 60 77 0 13 -9 16 -45
15 -25 -1 -45 -6 -45 -11z"/>
<path d="M3460 3966 c0 -2 8 -10 18 -17 15 -13 16 -12 3 4 -13 16 -21 21 -21
13z"/>
<path d="M3027 3953 c-4 -3 -18 -7 -31 -9 -13 -1 -51 -15 -83 -31 -50 -24 -58
-32 -60 -58 -2 -26 -1 -27 6 -9 6 14 26 25 58 33 62 17 113 42 113 57 0 7 6
15 13 17 6 3 7 6 1 6 -6 1 -14 -2 -17 -6z"/>
<path d="M4251 3932 c-7 -15 -15 -61 -17 -102 -3 -48 -1 -68 5 -55 4 11 6 37
3 57 -3 26 1 47 16 71 11 19 17 39 13 45 -3 6 -12 -1 -20 -16z"/>
<path d="M4266 3894 c-10 -38 0 -41 12 -5 6 17 7 31 3 31 -5 0 -12 -12 -15
-26z"/>
<path d="M3013 3903 c-15 -5 -18 -103 -4 -103 5 0 12 6 14 13 4 8 6 8 6 -2 1
-8 -6 -22 -15 -32 -15 -16 -13 -17 28 -12 53 7 112 36 132 64 26 38 7 40 -27
4 -18 -20 -46 -38 -64 -41 -29 -6 -34 -3 -44 22 -6 16 -9 44 -7 62 4 33 3 34
-19 25z"/>
<path d="M3054 3875 c-3 -14 -1 -31 5 -39 6 -7 9 -15 7 -17 -2 -2 8 -5 22 -5
l27 -2 -23 11 c-20 9 -23 16 -19 44 7 38 -10 45 -19 8z"/>
<path d="M2955 3860 c2 -11 7 -25 10 -30 3 -6 -1 -10 -9 -10 -9 0 -16 -4 -16
-10 0 -5 9 -10 19 -10 11 0 21 -6 24 -12 2 -7 1 1 -1 17 -3 17 -6 40 -6 53 -1
12 -6 22 -13 22 -6 0 -10 -9 -8 -20z"/>
<path d="M2925 3840 c-3 -5 1 -10 9 -10 9 0 16 5 16 10 0 6 -4 10 -9 10 -6 0
-13 -4 -16 -10z"/>
<path d="M4251 3834 c0 -11 3 -14 6 -6 3 7 2 16 -1 19 -3 4 -6 -2 -5 -13z"/>
<path d="M2910 3800 c0 -11 4 -20 9 -20 5 0 7 9 4 20 -3 11 -7 20 -9 20 -2 0
-4 -9 -4 -20z"/>
<path d="M2821 3774 c-20 -26 -20 -44 0 -44 6 0 7 5 4 11 -4 5 1 19 11 30 9
10 15 22 12 25 -3 3 -15 -7 -27 -22z"/>
<path d="M2940 3780 c0 -5 4 -10 9 -10 6 0 13 5 16 10 3 6 -1 10 -9 10 -9 0
-16 -4 -16 -10z"/>
<path d="M3080 3725 c-8 -10 -10 -30 -6 -60 6 -35 11 -45 26 -45 10 0 21 -9
25 -19 8 -25 41 -36 60 -21 12 10 25 7 62 -11 40 -20 53 -34 78 -84 25 -49 35
-61 60 -65 23 -4 31 -12 36 -35 8 -35 36 -92 50 -100 32 -20 -13 -106 -76
-145 -45 -28 -55 -63 -55 -200 0 -64 -5 -131 -11 -149 -16 -45 -2 -52 16 -8 9
23 15 71 16 129 1 149 8 179 48 203 18 11 53 40 77 64 56 55 58 85 10 128 -19
17 -37 42 -40 57 -4 14 -8 37 -11 51 -4 17 -12 25 -26 25 -36 0 -59 20 -85 74
-28 60 -71 87 -140 89 l-39 2 -1 52 c-1 29 -7 59 -14 68 -16 19 -44 19 -60 0z
m49 -27 c-1 -13 -4 -34 -9 -48 l-7 -25 -12 28 c-8 20 -8 34 -1 48 14 26 30 24
29 -3z"/>
<path d="M3271 3711 c23 -15 107 -26 94 -13 -5 5 -32 13 -60 16 -35 5 -45 3
-34 -3z"/>
<path d="M2945 3688 c-11 -6 -46 -35 -77 -64 -31 -30 -62 -54 -68 -54 -6 0
-25 7 -41 16 -29 15 -30 14 -20 -4 13 -25 55 -36 82 -21 11 6 39 27 61 47 37
34 46 37 93 35 57 -3 82 13 71 44 -6 14 -9 15 -15 4 -7 -10 -13 -10 -29 -2
-25 13 -32 13 -57 -1z m56 -26 c-7 -2 -18 1 -23 6 -8 8 -4 9 13 5 13 -4 18 -8
10 -11z"/>
<path d="M3981 3628 c-1 -18 -8 -29 -22 -33 -11 -4 -25 -19 -32 -33 -6 -15
-16 -30 -22 -34 -6 -4 -1 -8 10 -9 13 0 2 -9 -30 -25 -46 -23 -47 -25 -15 -18
51 10 101 36 96 50 -2 6 1 17 7 23 14 14 2 14 -24 0 -19 -10 -19 -9 -9 10 6
12 17 21 24 21 24 0 37 25 27 51 l-10 24 0 -27z"/>
<path d="M3198 3513 c-24 -6 -23 -9 18 -45 20 -17 54 -58 76 -91 22 -32 42
-56 45 -53 3 3 -14 33 -37 68 -38 57 -39 60 -11 34 42 -41 39 -19 -5 32 -40
47 -61 60 -86 55z"/>
<path d="M3579 3460 c12 -11 27 -17 33 -14 5 3 -3 12 -17 20 -38 19 -44 17
-16 -6z"/>
<path d="M3835 3454 l-70 -13 89 5 c48 2 96 9 105 14 23 14 -37 11 -124 -6z"/>
<path d="M3210 3433 c0 -5 14 -22 31 -39 17 -16 42 -50 55 -76 13 -27 26 -48
28 -48 9 0 -14 62 -34 95 -21 35 -80 84 -80 68z"/>
<path d="M3865 3414 c-15 -12 -37 -15 -94 -11 -50 3 -68 1 -56 -5 40 -23 185
-6 185 22 0 14 -12 12 -35 -6z"/>
<path d="M3186 3388 c4 -7 19 -28 33 -46 13 -19 35 -55 47 -80 13 -26 23 -40
24 -32 0 23 -46 112 -74 143 -26 28 -43 36 -30 15z"/>
<path d="M3170 3353 c0 -5 7 -19 16 -31 8 -12 12 -27 9 -33 -4 -5 2 -33 14
-62 11 -29 25 -65 31 -81 20 -55 20 -19 0 39 -26 75 -25 81 6 23 27 -53 39
-63 23 -20 -35 92 -99 199 -99 165z"/>
<path d="M3190 3212 c0 -27 43 -149 47 -135 4 12 -36 153 -43 153 -2 0 -4 -8
-4 -18z"/>
<path d="M3172 3102 c-1 -41 4 -79 13 -97 l14 -30 -5 30 -5 30 20 -35 c24 -42
27 -36 5 15 -10 25 -11 34 -3 29 8 -5 10 -2 6 8 -3 9 -11 36 -18 59 -19 67
-25 65 -27 -9z"/>
<path d="M3155 2873 c15 -36 25 -52 25 -41 0 11 -30 78 -35 78 -3 0 2 -17 10
-37z"/>
<path d="M3120 2851 c0 -6 4 -13 10 -16 6 -3 7 1 4 9 -7 18 -14 21 -14 7z"/>
<path d="M3115 2603 c-44 -9 -85 -25 -85 -34 0 -5 19 -9 43 -9 30 0 48 6 59
20 19 21 13 29 -17 23z"/>
<path d="M2365 2530 c-4 -21 -3 -49 0 -62 6 -19 5 -21 -6 -10 -21 19 -32 14
-25 -12 4 -16 0 -30 -9 -40 -16 -15 -19 -68 -6 -100 7 -19 8 -19 13 2 4 13 2
22 -5 22 -6 0 -7 3 -4 7 4 4 21 -3 37 -15 16 -12 34 -22 39 -22 5 0 16 -7 25
-15 8 -8 26 -16 40 -17 15 -1 26 -9 26 -16 0 -10 4 -11 13 -5 6 5 23 9 37 8
84 -5 85 -5 70 -15 -24 -15 2 -11 30 5 l25 14 -23 1 c-36 0 -16 17 29 25 43 7
63 0 39 -15 -13 -8 -12 -10 3 -10 21 0 23 28 1 37 -9 3 -37 0 -63 -6 -55 -15
-101 -15 -115 -1 -5 5 -19 10 -30 10 -28 0 -96 49 -96 70 0 9 -3 20 -6 23 -9
9 -18 73 -17 130 0 57 -13 62 -22 7z m-10 -143 c0 -22 -12 -37 -29 -37 -5 0
-3 7 4 15 10 12 10 15 -1 16 -10 0 -11 2 -1 6 6 2 12 12 12 21 0 8 3 12 7 8 4
-4 8 -17 8 -29z"/>
<path d="M2985 2520 c-4 -6 22 -10 69 -10 44 0 76 4 76 10 0 6 -30 10 -69 10
-39 0 -73 -4 -76 -10z"/>
<path d="M2950 2485 c-19 -7 -34 -17 -33 -23 1 -5 -12 -12 -29 -16 -17 -3 -29
-9 -25 -12 5 -6 114 14 131 23 4 3 2 9 -5 14 -11 7 -9 9 6 9 11 0 27 5 35 10
23 15 -37 11 -80 -5z m17 -21 c-3 -3 -12 -4 -19 -1 -8 3 -5 6 6 6 11 1 17 -2
13 -5z"/>
<path d="M2880 2421 l-105 -16 65 -5 c64 -5 151 9 151 24 1 13 -2 13 -111 -3z"/>
<path d="M2565 2381 c22 -25 66 -51 87 -51 7 1 -5 10 -27 22 -22 11 -49 28
-60 37 -20 16 -20 16 0 -8z"/>
<path d="M2891 2379 c-14 -5 -47 -14 -75 -18 l-51 -9 45 -1 c52 -1 120 16 120
29 0 12 -8 12 -39 -1z"/>
<path d="M2347 2293 c-12 -11 -8 -18 25 -38 41 -24 105 -36 105 -20 0 7 -10
10 -23 7 -24 -4 -94 25 -94 39 0 12 17 11 25 -1 3 -5 14 -10 23 -10 12 1 10 5
-8 15 -28 16 -43 18 -53 8z"/>
<path d="M2698 2243 c7 -3 16 -2 19 1 4 3 -2 6 -13 5 -11 0 -14 -3 -6 -6z"/>
<path d="M2653 2233 c10 -17 -18 -23 -55 -12 -44 12 -88 12 -88 -2 0 -6 11 -8
28 -5 15 4 41 2 59 -3 22 -6 43 -5 70 4 21 8 33 14 26 15 -6 0 -19 3 -29 7
-11 4 -15 3 -11 -4z"/>
<path d="M2465 2190 c-14 -15 -15 -20 -4 -20 8 -1 2 -8 -13 -16 -16 -8 -28
-20 -28 -25 0 -11 15 -9 55 7 19 7 19 6 5 -12 -14 -18 -14 -18 2 -5 10 7 15
18 11 24 -4 6 0 8 11 4 10 -4 15 -3 11 4 -4 5 -14 7 -24 4 -12 -3 -17 1 -18
15 -1 11 2 18 8 15 5 -4 9 1 9 9 0 21 -3 20 -25 -4z m-5 -50 c-8 -5 -19 -10
-25 -10 -5 0 -3 5 5 10 8 5 20 10 25 10 6 0 3 -5 -5 -10z"/>
<path d="M2525 2190 c-4 -7 8 -8 37 -4 57 9 61 14 10 14 -22 0 -44 -5 -47 -10z"/>
<path d="M5035 3491 c-16 -4 -45 -6 -62 -3 -20 3 -33 0 -33 -6 0 -6 19 -13 43
-15 l42 -4 -49 -1 c-30 -1 -46 -6 -40 -11 11 -10 148 5 175 20 47 24 -2 37
-76 20z"/>
<path d="M4965 3280 c20 -32 125 -54 125 -26 0 17 -14 22 -84 32 -38 5 -47 4
-41 -6z"/>
<path d="M5524 3255 c21 -16 32 -13 21 4 -3 6 -14 11 -23 11 -15 -1 -15 -2 2
-15z"/>
<path d="M5575 3143 c-8 -7 -20 -13 -27 -13 -7 0 -4 -6 7 -12 11 -7 35 -11 53
-9 18 1 39 -3 47 -9 12 -10 16 -9 21 4 3 9 1 22 -5 30 -16 19 -80 25 -96 9z"/>
<path d="M5411 3126 c14 -12 110 -55 104 -47 -8 14 -79 51 -96 51 -7 0 -10 -2
-8 -4z"/>
<path d="M5690 3080 c0 -5 5 -10 10 -10 6 0 10 -9 10 -21 0 -11 5 -19 12 -17
19 7 20 24 3 42 -18 18 -35 21 -35 6z"/>
<path d="M5916 3071 c-4 -6 -27 -19 -51 -30 -25 -11 -45 -24 -45 -29 0 -14
-42 -23 -56 -11 -8 7 -14 7 -19 -1 -3 -5 -1 -10 6 -10 9 0 9 -4 -1 -15 -6 -8
-9 -19 -6 -24 4 -6 -10 -13 -31 -17 -21 -4 -45 -10 -54 -15 -10 -5 -19 -1 -27
12 -14 22 -70 59 -89 59 -17 0 1 -48 25 -67 16 -13 15 -14 -3 -9 -11 2 -36 7
-55 10 -30 6 -28 4 15 -14 38 -16 55 -18 73 -10 29 13 42 13 42 0 0 -5 -8 -10
-17 -11 -10 -1 1 -5 25 -11 34 -7 42 -13 42 -31 0 -14 16 -34 46 -57 29 -22
58 -56 75 -90 16 -30 29 -49 29 -42 0 7 -14 40 -30 73 -27 52 -28 59 -11 50
11 -6 38 -44 60 -83 56 -102 79 -127 36 -41 -54 111 -43 117 15 8 45 -84 54
-90 45 -30 -8 59 -32 102 -82 145 l-35 31 22 21 c12 12 37 22 55 24 l32 2 12
-76 c7 -50 20 -90 37 -115 13 -21 31 -66 39 -100 l15 -62 -4 61 c-2 36 -13 78
-26 104 -22 44 -43 187 -28 196 4 2 12 -15 18 -38 6 -24 12 -47 14 -53 2 -5 6
10 10 35 12 90 13 94 15 46 1 -42 30 -118 52 -136 3 -3 9 -12 12 -20 3 -10 6
-7 6 8 1 12 -8 41 -19 62 -11 22 -20 57 -20 78 3 115 -20 158 -60 114 -11 -12
-27 -22 -34 -22 -7 0 -25 -9 -40 -21 l-26 -21 -20 24 c-11 12 -19 18 -20 11 0
-6 5 -15 10 -18 6 -3 10 -11 10 -17 0 -7 -13 1 -30 17 -16 16 -30 24 -30 18 0
-6 7 -16 15 -23 19 -16 19 -29 0 -26 -25 4 -57 38 -45 50 15 15 12 26 -7 27
-10 1 0 5 22 10 65 15 69 17 56 33 -10 11 -8 16 8 21 12 3 26 15 32 27 11 20
6 38 -5 19z m-122 -167 c14 -36 -18 -45 -53 -15 -16 14 -18 21 -9 24 27 11 56
6 62 -9z m-124 2 c0 -3 -4 -8 -10 -11 -5 -3 -10 -1 -10 4 0 6 5 11 10 11 6 0
10 -2 10 -4z"/>
<path d="M5510 3036 c0 -7 10 -16 23 -20 35 -9 38 -7 27 14 -12 23 -50 27 -50
6z"/>
<path d="M6633 2849 c-13 -5 -23 -13 -23 -18 0 -11 109 -20 128 -11 36 17 -64
45 -105 29z"/>
<path d="M6160 2841 c0 -14 27 -81 33 -81 5 0 -22 82 -29 89 -2 2 -4 -1 -4 -8z"/>
<path d="M6630 2802 c0 -4 9 -8 20 -9 11 -1 18 2 15 8 -7 11 -35 12 -35 1z"/>
<path d="M5701 2773 c0 -5 14 -19 32 -33 30 -24 30 -14 -1 23 -15 17 -32 23
-31 10z"/>
<path d="M6121 2664 c-18 -13 -24 -14 -38 -2 -15 11 -16 11 -8 -7 4 -11 14
-40 22 -65 l13 -45 -4 48 c-2 26 -2 47 0 47 1 0 14 -4 28 -10 25 -9 26 -8 20
18 -9 35 -7 34 -33 16z"/>
<path d="M6645 2572 c-4 -12 -19 -29 -34 -37 -23 -13 -24 -14 -5 -15 27 0 57
33 51 57 -4 16 -6 15 -12 -5z"/>
<path d="M5721 2515 c0 -5 9 -28 19 -50 17 -36 19 -38 19 -14 1 15 -8 37 -19
50 -10 13 -19 20 -19 14z"/>
<path d="M6093 2479 c3 -19 8 -42 12 -52 7 -17 8 -17 22 2 15 22 8 46 -22 71
-14 12 -15 9 -12 -21z"/>
<path d="M5650 2451 c0 -5 5 -11 12 -13 6 -2 12 -26 12 -55 1 -39 7 -58 24
-75 12 -14 22 -34 22 -46 0 -13 6 -22 15 -22 19 0 21 90 4 123 -31 59 -89 116
-89 88z m60 -122 c0 -6 -4 -7 -10 -4 -5 3 -10 11 -10 16 0 6 5 7 10 4 6 -3 10
-11 10 -16z"/>
<path d="M5800 2364 c27 -42 31 -56 26 -94 -2 -25 -8 -53 -11 -62 -12 -30 13
-20 30 12 31 60 8 138 -53 178 -22 14 -21 11 8 -34z"/>
<path d="M5970 2230 c0 -16 38 -88 50 -95 14 -9 13 0 -11 56 -20 45 -39 64
-39 39z"/>
<path d="M6160 2180 c0 -5 6 -10 14 -10 8 0 18 5 21 10 3 6 -3 10 -14 10 -12
0 -21 -4 -21 -10z"/>
<path d="M5817 2173 c-4 -3 -7 -26 -7 -50 0 -37 3 -44 18 -41 19 4 27 37 18
74 -6 24 -17 30 -29 17z"/>
<path d="M6765 2166 c-17 -7 -44 -29 -62 -49 -17 -19 -42 -37 -54 -39 -23 -4
-23 -5 5 -13 22 -6 31 -4 38 9 20 35 53 56 107 66 80 16 92 20 86 31 -9 13
-85 10 -120 -5z"/>
<path d="M6160 2119 c-18 -35 -18 -35 -45 -9 -14 13 -25 19 -25 13 0 -6 12
-18 26 -28 20 -13 28 -14 40 -4 11 9 14 8 14 -10 0 -11 5 -21 10 -21 12 0 13
50 1 69 -7 11 -11 9 -21 -10z"/>
<path d="M6174 2015 c-10 -40 0 -45 17 -9 13 27 14 34 3 34 -8 0 -16 -11 -20
-25z"/>
<path d="M6132 2006 c-13 -31 -8 -46 9 -29 6 6 9 21 7 34 -4 24 -5 23 -16 -5z"/>
<path d="M6335 2000 c-22 -9 -18 -12 48 -29 40 -10 45 -7 24 13 -19 19 -49 26
-72 16z"/>
<path d="M6476 1756 c-38 -35 -46 -56 -22 -56 17 0 66 56 66 76 0 20 -4 18
-44 -20z"/>
<path d="M5983 1751 c-20 -17 -33 -37 -33 -52 0 -13 -12 -44 -25 -68 -16 -27
-19 -39 -10 -31 22 18 45 64 45 89 0 12 17 36 38 56 44 41 31 47 -15 6z"/>
<path d="M5785 1705 c-27 -13 -55 -24 -62 -25 -7 0 -10 -6 -7 -13 2 -7 -5 -24
-16 -37 -27 -31 -13 -36 46 -20 56 16 104 59 104 94 0 31 -2 31 -65 1z"/>
<path d="M5508 1463 c6 -2 18 -2 25 0 6 3 1 5 -13 5 -14 0 -19 -2 -12 -5z"/>
<path d="M5949 1315 c-17 -33 -33 -51 -50 -55 l-24 -6 24 -6 c27 -8 75 8 67
21 -3 5 -1 23 5 40 19 53 3 58 -22 6z"/>
<path d="M5888 1212 c-61 -20 -62 -32 -2 -21 50 10 105 40 69 38 -11 0 -41 -8
-67 -17z"/>
<path d="M4782 930 c-44 -10 -56 -25 -13 -16 18 3 63 6 99 6 36 0 63 2 61 4
-9 8 -117 12 -147 6z"/>
<path d="M4093 850 c-23 -22 -52 -40 -65 -40 -13 0 -31 -7 -42 -15 -16 -12
-23 -12 -50 2 l-31 16 30 11 c43 16 78 37 71 43 -3 3 -30 -5 -61 -17 -46 -19
-60 -21 -81 -11 -35 15 -60 14 -97 -6 l-32 -18 45 -6 c36 -5 39 -6 13 -7 -68
-4 -39 -20 45 -26 48 -3 116 -9 152 -14 76 -10 85 -5 123 76 14 28 24 52 24
52 -1 0 -21 -18 -44 -40z"/>
<path d="M4354 834 c-32 -20 -77 -45 -99 -56 -39 -19 -39 -19 -8 -14 18 3 63
24 100 48 82 50 77 47 71 53 -2 3 -31 -11 -64 -31z"/>
<path d="M4473 800 c-12 -5 -45 -25 -73 -44 -69 -47 -120 -60 -195 -50 -76 10
-147 10 -207 0 -60 -9 -65 -29 -5 -21 66 8 134 9 232 0 101 -9 116 -4 220 71
48 35 53 36 115 31 60 -4 63 -3 35 9 -34 15 -90 17 -122 4z"/>
<path d="M3833 730 c27 -22 37 -25 37 -12 0 8 -43 32 -57 32 -3 0 6 -9 20 -20z"/>
<path d="M3395 730 c-26 -6 -22 -8 23 -9 33 -1 51 3 47 9 -7 11 -26 11 -70 0z"/>
<path d="M6090 3750 c20 -13 47 -13 55 0 4 6 -9 10 -32 10 -28 0 -34 -3 -23
-10z"/>
<path d="M4552 3542 c-13 -2 -20 -8 -16 -14 5 -7 1 -9 -9 -5 -9 3 -19 2 -22
-3 -4 -6 9 -10 27 -11 27 0 30 -2 13 -9 -11 -5 -33 -9 -50 -9 -16 -1 -37 -6
-45 -11 -10 -7 11 -8 64 -3 64 5 78 4 74 -7 -2 -8 -23 -20 -47 -28 -55 -18
-49 -23 14 -11 28 6 69 8 93 5 52 -7 48 10 -5 20 -32 6 -34 8 -20 19 18 13 23
45 7 45 -5 0 -10 6 -10 14 0 13 -21 16 -68 8z"/>
<path d="M4566 3401 c-12 -5 -15 -10 -9 -14 6 -4 16 0 23 8 14 17 13 17 -14 6z"/>
<path d="M6170 3429 c-43 -26 -45 -28 -38 -34 8 -8 98 33 98 45 0 16 -22 12
-60 -11z"/>
<path d="M6320 3434 c-14 -8 -35 -12 -47 -9 -29 7 -35 -5 -21 -42 11 -29 9
-33 -40 -83 -29 -29 -52 -58 -52 -65 0 -6 -11 -17 -25 -23 -34 -16 -33 -42 3
-41 21 0 23 2 9 8 -17 6 -16 8 7 19 14 6 26 16 26 22 0 30 118 153 171 178 24
12 27 17 18 33 -11 22 -15 22 -49 3z"/>
<path d="M4912 3131 c-9 -5 -1 -10 25 -15 21 -3 53 -9 71 -12 21 -4 32 -2 32
5 0 25 -98 42 -128 22z"/>
<path d="M4566 2724 c-22 -8 -73 -20 -113 -26 -50 -7 -73 -15 -73 -24 0 -9 11
-14 33 -14 40 0 165 44 186 65 8 8 13 14 11 14 -3 -1 -23 -8 -44 -15z"/>
<path d="M4625 2454 c17 -7 50 -13 75 -13 59 0 26 14 -50 21 -52 5 -53 4 -25
-8z"/>
<path d="M4925 2410 c3 -5 33 -10 66 -10 33 0 59 4 59 10 0 6 -29 10 -66 10
-41 0 -63 -4 -59 -10z"/>
<path d="M4746 2320 c-19 -17 -62 -40 -95 -51 -54 -19 -100 -49 -73 -49 6 0
13 4 16 8 3 5 29 14 58 21 30 6 76 27 103 46 32 23 60 35 82 35 20 0 32 4 28
10 -3 6 -24 10 -45 10 -30 0 -48 -8 -74 -30z"/>
<path d="M5175 2325 c42 -29 58 -26 30 5 -10 11 -29 20 -43 20 -23 0 -22 -2
13 -25z"/>
<path d="M5130 2293 c1 -23 133 -104 147 -90 3 4 -85 64 -124 86 -13 6 -23 8
-23 4z"/>
<path d="M4535 2280 l-20 -9 20 0 c11 0 29 4 40 9 l20 9 -20 0 c-11 0 -29 -4
-40 -9z"/>
<path d="M5440 2255 c0 -15 38 -40 47 -31 7 7 -26 46 -39 46 -4 0 -8 -7 -8
-15z"/>
<path d="M4199 2215 c-77 -40 -75 -56 3 -18 85 42 87 43 62 43 -10 -1 -40 -12
-65 -25z"/>
<path d="M5370 2164 c16 -26 30 -61 30 -78 l0 -30 -31 30 c-18 16 -40 48 -51
72 -23 51 -30 51 -19 1 9 -40 5 -110 -9 -151 -6 -20 -5 -36 5 -54 7 -14 11
-39 8 -55 -3 -20 0 -29 9 -29 7 0 -2 -12 -19 -26 -31 -24 -33 -30 -33 -86 0
-77 -35 -181 -75 -223 -21 -22 -52 -39 -102 -54 -40 -12 -81 -30 -90 -40 -10
-10 -35 -21 -55 -25 -53 -10 -156 -70 -203 -118 -36 -38 -123 -88 -152 -88 -7
0 -38 -12 -70 -26 -44 -20 -83 -28 -158 -33 -87 -7 -110 -12 -180 -46 -46 -22
-103 -41 -135 -45 -48 -6 -52 -7 -27 -14 36 -11 90 0 146 29 70 35 152 55 217
53 40 -1 70 5 93 17 19 9 76 30 126 46 85 27 98 34 166 99 80 76 137 110 187
110 19 0 40 9 55 24 13 13 50 33 83 44 81 30 104 43 126 72 29 40 61 131 66
190 3 39 12 67 35 99 45 66 81 139 101 204 l18 58 -28 57 c-16 32 -37 58 -47
60 -14 3 -12 -5 13 -44z"/>
<path d="M5456 2153 c27 -53 18 -124 -37 -301 -31 -99 -36 -151 -17 -170 16
-16 28 -15 28 1 0 7 14 34 30 60 18 29 30 60 29 80 l-1 32 -10 -35 c-12 -43
-58 -101 -58 -73 0 10 16 74 35 142 39 139 46 231 19 269 -22 31 -36 27 -18
-5z"/>
<path d="M5513 2106 c3 -8 9 -31 13 -50 3 -20 10 -33 15 -30 13 8 11 68 -3 82
-16 16 -31 15 -25 -2z"/>
<path d="M4643 1809 c-18 -5 -33 -14 -33 -19 0 -5 13 -5 32 1 18 5 40 6 49 4
10 -3 20 -1 24 5 3 5 2 10 -4 10 -5 0 -15 2 -23 4 -7 2 -28 0 -45 -5z"/>
<path d="M4515 1750 c-37 -6 -37 -10 5 -23 19 -6 60 9 60 23 0 11 -4 11 -65 0z"/>
<path d="M4795 1722 c-20 -36 -21 -37 -90 -43 -83 -6 -113 -18 -180 -68 -90
-68 -133 -85 -254 -100 -59 -8 -148 -37 -138 -47 1 -2 21 3 42 10 22 8 81 17
130 21 108 9 135 19 199 74 78 67 116 82 202 80 66 -2 78 1 99 21 14 13 27 31
30 40 3 10 19 20 36 24 41 8 27 26 -19 26 -33 0 -39 -5 -57 -38z"/>
<path d="M3540 1730 c-21 -7 -19 -8 15 -8 22 0 54 4 70 8 27 7 25 8 -15 8 -25
0 -56 -4 -70 -8z"/>
<path d="M2940 1393 c-35 -6 -44 -18 -36 -47 5 -21 12 -26 39 -25 41 0 119 30
125 47 3 10 -4 12 -30 7 -25 -5 -38 -2 -47 9 -8 9 -16 15 -20 15 -3 -1 -17 -4
-31 -6z"/>
<path d="M4415 1310 c-11 -5 -42 -9 -70 -9 -76 -2 -90 -18 -22 -26 69 -9 103
-1 117 25 11 21 6 23 -25 10z"/>
<path d="M3863 1269 c-73 -14 -125 -43 -200 -112 -53 -49 -82 -68 -110 -72
-21 -4 -45 -9 -53 -12 -13 -5 -13 -6 0 -11 8 -4 -12 -12 -45 -18 l-60 -12 61
-1 c48 -1 66 3 84 19 13 11 31 20 41 20 11 0 52 31 91 69 85 80 96 86 163 95
68 10 116 26 110 37 -7 10 -23 10 -82 -2z"/>
<path d="M4060 1217 c-105 -39 -165 -66 -148 -67 13 0 214 73 248 91 55 29 24
21 -100 -24z"/>
<path d="M3350 1088 c-64 -24 -94 -46 -35 -25 22 8 57 17 78 21 21 4 35 11 32
17 -8 12 -11 12 -75 -13z"/>
<path d="M3813 1087 c-18 -5 -33 -13 -33 -18 0 -8 58 6 68 16 11 10 -4 11 -35
2z"/>
<path d="M3008 1018 c6 -6 37 -13 69 -16 78 -6 58 14 -21 21 -43 4 -56 3 -48
-5z"/>
<path d="M3436 994 c-94 -17 -107 -24 -43 -24 55 0 145 18 153 31 7 12 -13 10
-110 -7z"/>
<path d="M3307 943 c18 -2 50 -2 70 0 21 2 7 4 -32 4 -38 0 -55 -2 -38 -4z"/>
<path d="M2726 858 c-38 -20 -79 -21 -135 -3 -17 6 -22 5 -17 -3 4 -6 24 -17
44 -23 41 -12 102 -1 137 25 32 23 13 26 -29 4z"/>
<path d="M2022 2078 c2 -6 10 -14 16 -16 7 -2 10 2 6 12 -7 18 -28 22 -22 4z"/>
<path d="M5094 951 c4 -6 14 -11 23 -11 13 0 13 -2 2 -17 -13 -15 -12 -15 8
-2 25 15 21 23 -16 34 -16 5 -21 4 -17 -4z"/>
<path d="M5145 890 c3 -5 11 -10 16 -10 6 0 7 5 4 10 -3 6 -11 10 -16 10 -6 0
-7 -4 -4 -10z"/>
</g>
</svg>
