<?xml version="1.0" standalone="no"?>
<!DOCTYPE svg PUBLIC "-//W3C//DTD SVG 20010904//EN"
 "http://www.w3.org/TR/2001/REC-SVG-20010904/DTD/svg10.dtd">
<svg version="1.0" xmlns="http://www.w3.org/2000/svg"
 width="1200.000000pt" height="956.000000pt" viewBox="0 0 1200.000000 956.000000"
 preserveAspectRatio="xMidYMid meet">

<g transform="translate(0.000000,956.000000) scale(0.100000,-0.100000)"
fill="#000000" stroke="none">
<path d="M8186 7740 c-90 -46 -251 -81 -273 -59 -5 5 -30 11 -54 12 -24 2 -61
11 -83 20 -21 9 -56 17 -77 17 -38 0 -38 0 -79 -86 -23 -48 -38 -89 -35 -92 3
-3 5 0 5 7 0 9 3 9 13 -1 8 -7 12 -20 9 -30 -8 -34 16 -18 28 18 10 30 16 35
38 33 34 -4 53 8 71 43 18 36 41 39 68 11 12 -13 33 -23 47 -23 19 0 28 -9 42
-40 13 -29 24 -40 43 -42 17 -2 27 -10 29 -23 6 -30 32 -55 56 -52 17 2 21 -3
18 -25 -2 -20 4 -30 20 -39 13 -7 27 -18 31 -26 6 -10 20 -12 52 -8 36 6 46 4
65 -17 19 -20 21 -30 16 -78 -3 -30 -9 -68 -12 -84 -7 -29 -6 -29 29 -23 32 5
38 2 61 -27 14 -19 22 -36 19 -40 -4 -3 3 -6 15 -6 12 0 28 10 37 23 49 69 65
101 65 127 0 16 6 35 13 42 6 7 12 18 12 23 0 20 27 111 41 137 11 21 12 29 2
40 -11 11 -26 38 -57 107 -4 7 -10 13 -15 12 -4 -1 -20 15 -35 36 -52 72 -133
133 -175 133 -6 0 -29 -9 -50 -20z m-406 -59 c0 -6 -4 -13 -10 -16 -5 -3 -10
1 -10 9 0 9 5 16 10 16 6 0 10 -4 10 -9z"/>
<path d="M7710 7454 c-26 -8 -60 -11 -79 -7 -33 6 -34 5 -27 -23 4 -16 8 -37
10 -47 3 -23 13 -31 68 -51 57 -21 113 -13 134 19 14 22 10 55 -8 55 -5 0 -16
16 -24 35 -16 39 -13 39 -74 19z"/>
<path d="M7365 7430 c-3 -5 -2 -10 4 -10 5 0 13 5 16 10 3 6 2 10 -4 10 -5 0
-13 -4 -16 -10z"/>
<path d="M7142 7380 c-46 -50 -68 -60 -90 -38 -17 17 -23 6 -31 -59 -4 -32
-12 -68 -19 -80 -7 -12 -12 -26 -12 -32 0 -28 37 -4 112 74 101 104 129 114
184 65 56 -48 77 -55 108 -35 26 17 30 37 17 84 -6 21 -13 25 -51 26 -25 1
-64 12 -87 24 -62 31 -80 27 -131 -29z"/>
<path d="M8590 7325 c-6 -15 -19 -29 -30 -32 -23 -6 -26 -19 -7 -26 8 -3 1
-18 -21 -48 -40 -54 -98 -152 -95 -161 2 -4 -4 -19 -12 -34 -13 -25 -12 -30 3
-44 15 -15 20 -15 39 -3 48 31 92 99 107 166 16 67 48 132 59 120 4 -3 2 -12
-4 -19 -14 -17 -1 -37 20 -31 10 2 26 -2 36 -9 10 -8 26 -14 35 -14 9 0 29
-13 45 -30 l28 -29 -21 -68 c-30 -94 -30 -96 18 -88 45 8 50 -1 27 -45 -22
-43 -26 -69 -11 -81 8 -6 14 -22 14 -35 0 -55 41 -114 79 -114 14 0 34 -7 43
-14 14 -10 28 -10 80 1 113 25 135 33 172 58 47 32 101 38 101 12 0 -10 8 -23
18 -28 12 -7 17 -22 17 -49 0 -29 4 -40 15 -40 8 0 15 -4 15 -8 0 -5 9 -19 20
-32 11 -13 17 -26 13 -29 -5 -3 -21 -21 -36 -40 -23 -28 -26 -39 -21 -70 9
-49 21 -62 51 -55 21 6 24 4 20 -12 -3 -11 -8 -40 -12 -66 -5 -41 -4 -47 15
-53 11 -3 25 -15 30 -26 6 -10 16 -19 23 -19 12 0 47 -34 47 -46 0 -8 -81
-117 -102 -137 -10 -10 -17 -26 -14 -35 3 -9 10 -53 16 -97 7 -53 17 -86 29
-100 11 -11 23 -33 27 -50 4 -16 22 -45 41 -64 30 -31 37 -47 34 -76 0 -6 11
-11 26 -10 20 0 28 -6 33 -25 3 -14 15 -27 25 -29 21 -4 75 -38 87 -56 17 -24
7 -82 -22 -128 -16 -26 -30 -53 -30 -58 0 -14 -106 -119 -120 -119 -21 0 -109
-92 -120 -125 -13 -39 -4 -136 13 -147 7 -4 21 -4 32 -1 22 8 75 7 83 -2 3 -3
0 -15 -6 -28 -29 -58 -72 -161 -72 -172 0 -8 8 -11 20 -8 11 3 20 3 20 0 0
-19 -73 -106 -164 -197 -58 -57 -106 -109 -106 -115 0 -6 9 -18 20 -27 19 -17
23 -14 106 65 102 97 178 192 170 212 -3 8 -1 36 5 63 6 26 12 56 13 68 1 11
21 55 44 97 23 43 46 96 53 119 11 43 5 123 -12 133 -13 8 -11 49 3 80 9 20 9
28 1 33 -8 5 4 25 32 57 24 27 42 52 39 57 -3 4 0 8 7 8 7 0 9 3 6 6 -4 4 13
21 36 39 41 31 97 117 97 147 0 8 -18 21 -40 28 -22 7 -40 18 -40 23 0 6 -14
23 -31 38 -30 26 -30 28 -18 70 6 24 13 55 15 69 2 14 6 40 10 58 4 20 0 52
-11 85 -10 28 -22 67 -26 85 -5 17 -14 49 -20 70 -5 20 -16 71 -24 112 -12 62
-12 77 -1 90 7 8 19 33 26 55 7 22 24 58 38 79 19 31 23 47 18 78 -4 22 -2 48
5 59 16 31 -24 183 -62 231 -16 20 -29 40 -29 45 0 12 -85 93 -97 93 -6 0 -13
18 -17 39 -11 69 -90 138 -142 125 -21 -5 -24 -3 -24 23 0 16 -5 34 -11 40 -9
9 -7 10 9 6 20 -5 20 -3 -6 27 -74 88 -140 140 -178 140 -12 0 -32 -9 -46 -19
-13 -11 -43 -24 -66 -30 -23 -7 -42 -16 -42 -21 0 -16 -62 -11 -105 9 -40 18
-85 14 -85 -8 0 -5 -4 -21 -10 -35 l-9 -25 -40 17 c-49 20 -51 30 -11 39 58
11 21 67 -50 75 -25 3 -53 9 -63 13 -12 5 -17 3 -15 -5 2 -7 -3 -15 -11 -18
-8 -3 -11 0 -7 7 4 6 3 11 -3 11 -5 0 -16 3 -25 6 -11 4 -19 -2 -26 -21z"/>
<path d="M6615 7255 c-32 -24 -186 -68 -231 -66 -23 1 -57 6 -74 11 -25 7 -54
4 -115 -11 l-82 -21 5 -52 c3 -39 0 -55 -12 -65 -22 -19 -20 -34 4 -26 11 3
30 -1 44 -10 38 -25 316 -25 357 0 4 3 24 6 44 7 26 1 35 6 35 19 0 26 30 53
44 39 7 -7 7 -16 -2 -31 -8 -12 -11 -23 -9 -26 3 -2 31 -4 63 -5 82 0 140 28
203 100 41 46 51 64 51 94 0 34 -3 37 -27 38 -65 1 -191 9 -233 14 -33 4 -52
2 -65 -9z"/>
<path d="M5895 7240 c-3 -5 -1 -10 5 -10 6 0 8 -5 5 -11 -4 -6 -10 -8 -13 -5
-3 3 -11 -3 -19 -13 -12 -18 -45 -22 -98 -11 -5 1 -16 2 -22 1 -15 -1 -63 -74
-63 -94 0 -8 -9 -22 -19 -31 -11 -10 -23 -31 -26 -47 -8 -34 -78 -99 -140
-128 -24 -11 -59 -36 -78 -55 -44 -44 -87 -66 -130 -66 -19 0 -48 -7 -65 -15
-24 -13 -58 -15 -158 -12 -140 4 -124 9 -207 -65 -17 -15 -34 -25 -38 -22 -13
8 -113 -48 -146 -82 -18 -19 -33 -43 -33 -53 0 -10 -15 -42 -34 -70 -19 -28
-37 -64 -41 -81 -4 -16 -11 -32 -16 -35 -5 -4 -9 -13 -9 -21 0 -7 -16 -36 -35
-63 -19 -26 -35 -53 -35 -58 0 -5 -13 -27 -30 -49 -16 -21 -30 -46 -30 -55 0
-9 -21 -36 -47 -61 -27 -24 -56 -57 -66 -71 -14 -21 -26 -27 -55 -27 -31 0
-41 -5 -55 -30 -10 -16 -23 -30 -29 -30 -5 0 -22 -8 -36 -19 -15 -10 -38 -21
-52 -24 -14 -3 -35 -15 -47 -27 -12 -11 -24 -20 -27 -20 -3 0 -26 -15 -52 -32
-32 -23 -56 -52 -81 -98 -63 -119 -95 -160 -125 -160 -21 0 -28 -5 -28 -19 0
-32 -12 -52 -36 -62 -13 -4 -24 -17 -24 -27 0 -30 -61 -82 -88 -75 -22 5 -62
-19 -62 -38 0 -8 -43 -53 -129 -132 -28 -27 -59 -65 -67 -85 -17 -41 -25 -112
-12 -112 20 0 6 -20 -14 -21 -14 -1 -39 -19 -63 -47 -25 -28 -33 -43 -22 -39
12 5 17 3 15 -5 -2 -6 -14 -12 -26 -13 -54 -4 -150 -145 -139 -203 4 -22 -15
-46 -148 -176 -156 -154 -178 -185 -205 -286 -21 -78 -47 -120 -75 -120 -34 0
-63 -31 -70 -77 -13 -71 -26 -113 -36 -113 -20 0 -76 -45 -72 -57 3 -9 -6 -13
-26 -13 -31 0 -41 -13 -20 -26 8 -4 7 -9 -2 -15 -8 -4 -14 -12 -14 -17 0 -11
-58 -103 -62 -98 -9 8 30 93 50 108 16 13 19 20 11 28 -9 9 -19 -2 -42 -42
-28 -49 -36 -72 -64 -183 -5 -22 -19 -62 -30 -90 -11 -27 -26 -75 -32 -105 -7
-31 -18 -65 -24 -75 -10 -17 -11 -15 -12 20 l0 39 -30 -32 c-17 -18 -30 -39
-31 -45 0 -7 -3 -38 -5 -70 -2 -32 0 -66 6 -76 7 -14 5 -25 -11 -45 -11 -14
-24 -24 -29 -21 -5 3 -12 0 -15 -6 -8 -12 82 -109 101 -109 13 0 28 46 19 60
-4 6 -2 10 4 10 5 0 11 -10 14 -22 3 -23 4 -23 13 -3 8 19 13 17 61 -32 29
-29 49 -53 45 -53 -5 0 -12 4 -17 9 -13 12 -77 2 -69 -11 11 -17 10 -83 0 -90
-7 -4 -2 -16 12 -30 21 -23 21 -25 4 -41 -15 -16 -15 -19 -2 -27 22 -14 28
-12 40 10 8 16 21 20 60 20 29 0 50 -5 54 -12 3 -7 3 2 0 21 -3 19 -8 39 -11
44 -3 5 0 13 8 17 10 7 10 14 1 35 l-12 26 24 -18 c14 -10 30 -29 36 -41 6
-15 16 -22 25 -19 17 7 57 -57 60 -98 4 -45 4 -45 17 -45 6 0 34 -24 62 -54
54 -57 127 -99 134 -78 7 22 19 12 42 -38 21 -44 25 -48 36 -32 7 9 14 31 14
49 0 17 4 34 9 38 5 3 54 7 108 10 77 4 105 1 132 -11 28 -13 38 -14 54 -5 14
9 22 9 33 0 8 -6 43 -12 79 -13 45 -1 64 -5 61 -13 -3 -6 4 -19 15 -29 10 -9
19 -25 19 -34 0 -19 54 -62 84 -66 12 -2 48 -13 81 -25 102 -36 416 -43 595
-12 19 3 58 5 85 4 28 -1 113 6 190 14 77 9 172 18 210 20 60 4 148 13 360 41
22 2 57 9 78 15 20 5 42 7 48 4 5 -4 16 -1 24 5 11 10 15 10 15 1 0 -7 5 -9
10 -6 6 4 35 8 66 11 30 2 63 8 72 13 9 5 56 11 104 14 48 3 91 8 95 10 5 3
29 8 53 11 25 3 56 8 70 12 29 7 59 11 116 17 23 3 47 7 53 11 6 4 45 9 88 12
43 4 84 11 90 16 7 6 24 8 38 6 14 -3 25 -2 25 1 0 3 10 7 23 7 12 1 42 4 67
7 96 11 216 21 233 19 9 -1 17 2 17 7 0 7 138 31 210 36 52 3 120 18 126 26 3
5 20 9 39 9 19 0 47 5 62 11 15 6 37 15 48 20 21 8 100 26 151 34 17 3 48 12
68 20 33 14 110 34 144 37 6 1 12 4 12 8 0 3 23 14 50 24 28 10 50 22 50 28 0
5 6 8 12 6 7 -3 19 1 26 9 8 7 17 11 22 8 4 -3 10 2 14 10 3 8 13 15 22 15 9
0 28 6 42 14 15 7 45 23 67 34 102 52 133 70 129 75 -8 7 34 19 45 13 5 -3 19
4 33 17 13 12 37 29 54 37 16 8 37 21 47 29 10 8 28 16 40 18 11 2 24 7 27 11
3 4 25 21 50 37 25 16 49 36 53 42 4 7 19 13 32 13 14 0 25 4 25 9 0 5 9 13
21 16 22 7 49 28 105 83 19 17 41 32 49 32 8 0 15 7 15 16 0 8 5 12 10 9 6 -3
10 -1 10 4 0 6 6 11 14 11 7 0 21 11 32 24 10 14 27 27 38 30 12 3 46 19 78
36 52 28 57 34 68 80 7 28 19 54 29 60 11 6 12 9 3 10 -10 0 -10 4 2 16 9 8
20 13 25 9 5 -3 12 4 16 15 3 11 11 20 16 20 5 0 9 8 9 18 0 9 11 26 25 37 72
58 103 84 145 124 25 24 69 54 98 67 40 18 52 29 52 46 0 13 17 40 40 62 23
23 40 49 40 62 0 13 6 27 13 31 6 4 12 15 12 23 0 8 15 21 33 29 17 8 32 20
32 27 0 9 -11 7 -35 -7 -19 -12 -38 -25 -41 -30 -3 -5 -10 -9 -15 -9 -6 0 -7
5 -3 11 3 6 -7 4 -23 -5 -21 -10 -39 -13 -59 -7 -28 7 -63 -1 -184 -44 -25 -9
-61 -31 -80 -49 -39 -36 -80 -51 -190 -66 -96 -14 -146 -27 -163 -44 -7 -8
-45 -16 -88 -19 -59 -4 -90 -13 -145 -40 -38 -19 -84 -40 -101 -45 -18 -6 -48
-22 -65 -35 -18 -14 -67 -42 -108 -63 -41 -20 -77 -40 -80 -44 -3 -3 -26 -21
-52 -40 -52 -36 -59 -45 -28 -37 11 3 20 1 20 -4 0 -5 -6 -9 -13 -9 -8 0 -32
-13 -53 -28 -56 -40 -64 -44 -64 -33 0 5 9 13 20 16 28 9 25 21 -4 20 -23 -1
-91 -41 -124 -72 -7 -7 -38 -29 -68 -49 -39 -26 -57 -45 -61 -65 -6 -30 -32
-47 -44 -28 -4 8 -18 3 -45 -15 -36 -24 -37 -26 -14 -26 l25 0 -25 -20 -25
-20 30 -1 c17 -1 42 -2 58 -3 15 0 27 -5 27 -10 0 -4 10 -6 21 -3 17 4 19 3
10 -6 -6 -6 -11 -17 -11 -25 0 -7 -6 -20 -14 -28 -15 -14 -10 -54 7 -65 12 -8
-44 -39 -69 -39 -10 0 -25 7 -35 16 -16 14 -18 14 -24 -5 -3 -12 -12 -21 -18
-21 -14 0 -19 48 -7 70 5 9 5 22 1 28 -10 16 -37 6 -45 -16 -3 -9 -9 -23 -12
-31 -5 -10 -2 -12 9 -8 11 4 14 2 10 -9 -7 -20 -21 -18 -35 6 -19 29 -38 25
-38 -9 0 -24 -3 -28 -20 -24 -23 6 -25 0 -7 -19 18 -18 30 -68 17 -68 -5 0
-10 8 -10 18 -1 26 -27 55 -44 49 -19 -8 -27 5 -15 23 6 10 9 11 9 3 0 -7 5
-13 10 -13 18 0 10 20 -20 52 -33 34 -35 39 -19 55 20 20 -46 44 -129 48 -43
2 -99 9 -127 16 -27 6 -83 13 -123 16 -48 3 -70 8 -66 15 5 7 0 9 -14 6 -12
-4 -26 0 -33 8 -15 18 -83 18 -98 1 -6 -8 -8 -17 -4 -20 3 -4 0 -13 -6 -21 -7
-8 -10 -20 -6 -26 10 -17 -11 -12 -61 15 l-47 25 -36 -22 c-50 -30 -58 -38
-30 -31 l24 5 -23 -16 c-12 -10 -26 -15 -31 -12 -9 6 -70 -16 -83 -29 -4 -4
-2 -15 4 -24 12 -20 -44 -110 -100 -157 l-36 -31 -12 22 c-6 13 -10 34 -7 47
4 19 -1 27 -22 36 -14 7 -34 12 -43 12 -15 1 -15 2 2 15 17 13 17 15 3 21 -9
3 -29 2 -44 -3 -26 -9 -28 -13 -29 -70 -1 -34 -4 -66 -8 -71 -3 -6 -2 -13 4
-17 5 -3 10 -13 10 -21 0 -19 -39 -18 -46 1 -4 8 -14 15 -24 15 -9 0 -25 9
-35 20 -14 16 -15 22 -5 35 10 12 9 16 -6 22 -11 3 -31 15 -46 25 -21 15 -32
16 -54 8 -17 -7 -30 -7 -33 -1 -6 8 -114 -3 -132 -15 -4 -2 -11 1 -15 7 -9 15
-130 3 -214 -21 -36 -11 -82 -22 -104 -25 -30 -5 -36 -9 -27 -18 8 -8 45 -11
112 -9 62 1 108 -2 122 -9 l21 -12 -24 -9 c-23 -9 -111 -4 -154 9 -11 3 -16 1
-12 -5 3 -6 -2 -13 -11 -15 -15 -4 -14 -5 3 -6 12 0 36 -6 54 -12 28 -10 30
-13 15 -22 -27 -15 -97 -15 -134 -1 -40 16 -41 17 -41 5 0 -19 86 -42 157 -43
41 -1 76 -5 79 -9 6 -10 -12 -11 -136 -10 -65 1 -88 5 -97 17 -10 14 -53 21
-168 26 -5 0 -39 -5 -75 -11 -36 -6 -66 -7 -68 -2 -1 4 -14 6 -27 3 -17 -3
-25 0 -25 10 0 14 -23 16 -83 9 -4 -1 -12 -11 -17 -23 -6 -17 -9 -18 -9 -6 -1
23 -19 32 -37 17 -8 -7 -12 -20 -8 -31 4 -15 1 -19 -12 -16 -9 2 -19 -3 -21
-9 -3 -7 0 -13 5 -13 18 0 1 -40 -26 -60 -13 -11 -33 -20 -44 -20 -10 0 -40
-10 -66 -22 -62 -29 -80 -28 -114 4 -31 29 -34 44 -16 83 12 26 42 36 32 10
-4 -8 -1 -15 5 -15 6 0 11 -7 11 -16 0 -8 4 -13 9 -9 5 3 12 1 16 -5 10 -16
29 -12 54 11 21 20 22 22 5 41 -28 30 -8 49 87 80 110 37 155 47 264 58 141
15 235 32 235 43 0 5 -13 7 -29 5 -18 -3 -27 0 -24 5 4 6 -13 8 -43 4 -27 -3
-98 -11 -159 -17 -60 -7 -150 -23 -200 -36 -101 -27 -167 -31 -184 -10 -12 15
-94 28 -151 26 -19 -2 -44 -2 -55 -1 -11 0 -36 0 -55 -1 -19 0 -91 0 -160 1
-69 0 -157 1 -197 1 -53 1 -73 5 -77 15 -6 17 -42 20 -51 5 -3 -5 -22 -10 -41
-10 -19 0 -34 -4 -34 -9 0 -9 -47 3 -82 20 -10 5 -25 9 -34 9 -20 0 -124 48
-124 57 0 23 27 73 40 74 10 0 11 2 3 6 -18 7 -16 28 2 43 9 7 13 20 10 28
-10 26 12 41 40 28 14 -6 25 -15 25 -20 0 -6 9 0 20 12 24 26 25 32 4 32 -13
0 -14 3 -5 13 6 8 9 16 6 19 -5 4 -83 -4 -115 -13 -11 -3 -14 3 -13 19 2 13
-1 21 -7 17 -6 -3 -10 -3 -11 2 0 4 -2 19 -3 31 -2 13 3 26 11 29 20 8 45 -18
39 -39 -4 -16 -2 -17 10 -7 13 10 12 14 -2 30 -9 10 -13 23 -8 30 4 8 3 10 -4
5 -6 -4 -17 2 -24 14 -16 26 -48 26 -55 0 -6 -21 -36 -35 -53 -25 -15 10 -12
23 8 29 9 2 -1 2 -23 -1 -22 -3 -44 -10 -50 -16 -7 -6 -3 -8 13 -4 12 3 28 0
35 -7 6 -6 29 -20 50 -29 39 -19 47 -34 22 -43 -19 -8 -48 15 -41 33 3 7 1 13
-4 13 -6 0 -10 -4 -10 -10 0 -5 -9 -10 -20 -10 -11 0 -20 6 -20 14 0 8 -13 16
-29 18 -17 2 -28 1 -26 -3 3 -4 -2 -9 -10 -12 -10 -4 -12 -1 -8 10 5 13 3 14
-16 4 -23 -13 -61 -6 -61 10 0 5 -6 9 -14 9 -16 0 -46 58 -46 88 0 24 37 72
55 72 23 0 27 18 14 55 -10 27 -16 32 -26 23 -7 -6 -13 -19 -13 -30 0 -24 -18
-58 -30 -58 -6 0 -10 8 -10 18 0 9 -11 35 -23 58 -18 31 -25 63 -30 134 -4 51
-9 96 -12 99 -3 2 -11 -1 -18 -9 -7 -8 -7 -10 -1 -7 8 5 11 -3 10 -22 -2 -36
-16 -53 -16 -20 0 13 -7 32 -15 43 -13 17 -11 22 13 47 15 16 35 29 44 29 18
0 38 28 38 52 -1 8 -6 6 -15 -6 -8 -11 -15 -15 -15 -10 0 6 6 19 14 30 13 16
12 21 -1 36 -14 16 -13 20 16 44 18 15 31 35 31 49 0 13 6 30 14 38 11 11 12
17 3 27 -10 10 -8 12 7 6 14 -5 17 -2 12 9 -3 9 0 15 9 15 15 0 38 34 29 43
-9 9 48 107 69 118 14 8 16 13 7 24 -13 16 -5 35 15 35 18 0 96 78 115 114 8
15 82 94 164 175 294 289 440 439 442 459 3 17 61 71 79 72 14 1 65 47 65 60
0 5 4 10 9 10 17 0 104 100 128 146 30 60 55 81 123 108 8 4 35 20 60 36 25
16 62 39 84 51 81 44 225 160 319 257 81 84 105 116 142 193 25 51 54 102 64
113 30 34 45 91 32 128 -10 28 -8 36 20 79 26 41 40 52 102 77 40 16 89 33
110 36 33 6 36 9 27 26 -8 15 -6 20 11 25 12 4 25 3 31 -3 6 -6 24 -2 51 14
23 13 53 24 67 24 14 0 52 9 85 21 32 11 95 23 139 26 71 5 92 11 170 51 50
25 104 58 120 72 46 39 109 77 171 105 74 32 86 58 51 110 -14 21 -26 52 -26
69 0 39 -22 136 -32 136 -4 0 -10 -4 -13 -10z m-956 -604 c-14 -24 -30 -37
-52 -41 -57 -12 -67 -16 -67 -31 0 -8 -3 -13 -7 -12 -5 1 -18 -3 -30 -10 -14
-8 -24 -9 -28 -2 -3 5 3 10 14 10 11 0 22 9 26 19 7 23 42 47 80 57 15 4 29
13 32 20 3 8 9 12 13 9 5 -3 11 -1 15 5 3 5 10 10 15 10 5 0 0 -15 -11 -34z
m-159 -256 c0 -5 -2 -10 -4 -10 -3 0 -8 5 -11 10 -3 6 -1 10 4 10 6 0 11 -4
11 -10z m-1210 -1214 c0 -16 -28 -42 -36 -33 -7 6 18 47 28 47 5 0 8 -6 8 -14z
m-210 -201 c-7 -9 -15 -13 -17 -11 -7 7 7 26 19 26 6 0 6 -6 -2 -15z m-220
-288 c0 -28 -35 -66 -42 -45 -7 19 14 68 29 68 7 0 13 -11 13 -23z m5700 -557
c0 -5 -5 -10 -11 -10 -5 0 -7 5 -4 10 3 6 8 10 11 10 2 0 4 -4 4 -10z m-173
-96 c-3 -3 -12 -4 -19 -1 -8 3 -5 6 6 6 11 1 17 -2 13 -5z m-602 -144 c-27
-12 -43 -12 -25 0 8 5 22 9 30 9 10 0 8 -3 -5 -9z m-5414 -79 c-6 -11 -11 -30
-11 -43 -1 -21 -1 -22 -12 -4 -8 14 -6 27 7 55 10 20 20 31 22 24 2 -7 0 -21
-6 -32z m-152 -37 c-10 -27 -12 -27 -19 -9 -5 13 -2 26 8 38 21 23 26 9 11
-29z m122 -74 c6 0 7 -4 4 -10 -12 -19 -25 -10 -24 18 1 16 3 20 6 10 2 -10 9
-18 14 -18z m5604 -110 c11 -5 15 -9 9 -9 -6 -1 -25 -4 -41 -7 -22 -4 -32 -2
-36 10 -5 12 0 16 21 15 15 0 36 -4 47 -9z m-5634 -37 c3 -33 4 -93 2 -93 -1
0 -9 12 -18 28 -12 20 -15 22 -13 7 2 -11 6 -22 10 -25 3 -3 10 -18 13 -33 6
-24 5 -28 -10 -25 -24 4 -30 -36 -10 -75 19 -38 19 -37 -4 -37 -15 0 -18 -6
-14 -35 2 -20 -1 -35 -7 -35 -5 0 -10 -14 -10 -31 0 -39 -18 -72 -35 -65 -9 3
-15 -3 -17 -17 -5 -36 3 -67 19 -67 9 0 14 9 13 23 -3 36 -1 40 15 27 8 -7 22
-10 30 -6 26 10 45 -5 45 -35 0 -19 -5 -29 -15 -29 -16 0 -19 -17 -9 -44 5
-12 10 -13 27 -3 12 7 26 18 30 25 15 23 44 14 50 -15 3 -16 9 -40 13 -55 4
-18 2 -28 -5 -28 -6 0 -10 3 -10 8 4 24 -4 24 -24 -2 -23 -28 -24 -28 -63 -15
-43 15 -66 40 -74 79 -3 14 -9 24 -13 23 -4 -2 -19 -3 -33 -3 l-27 0 7 -85 c4
-47 3 -85 -1 -85 -15 0 -35 17 -31 26 1 5 -14 18 -34 29 -48 25 -58 46 -62
125 -2 36 -7 86 -11 112 -6 41 -4 51 18 80 14 18 25 44 25 58 -1 96 32 182 81
206 14 7 18 13 10 16 -8 3 -10 11 -6 22 7 18 8 18 27 1 10 -9 23 -14 29 -11 5
4 14 -2 20 -11 9 -16 10 -15 11 5 0 26 35 82 51 82 5 0 10 -8 10 -17z m146 -9
c18 -38 7 -47 -23 -19 -14 13 -23 29 -19 34 11 19 30 12 42 -15z m4719 1 c-26
-19 -42 -19 -26 0 7 8 20 15 29 15 13 -1 13 -3 -3 -15z m-4676 -85 c0 -5 -2
-10 -4 -10 -3 0 -8 5 -11 10 -3 6 -1 10 4 10 6 0 11 -4 11 -10z m370 6 c0 -3
-4 -8 -10 -11 -5 -3 -10 -1 -10 4 0 6 5 11 10 11 6 0 10 -2 10 -4z m4170 -11
c-7 -8 -20 -15 -29 -15 -13 1 -13 3 3 15 26 19 42 19 26 0z m-4310 -55 c0 -5
-4 -10 -10 -10 -5 0 -10 5 -10 10 0 6 5 10 10 10 6 0 10 -4 10 -10z m-182 -59
c3 -9 0 -11 -8 -6 -10 6 -12 4 -7 -8 4 -11 2 -14 -9 -10 -13 5 -34 34 -34 46
0 11 54 -10 58 -22z m-82 -16 c17 -16 14 -18 -10 -9 -9 3 -16 10 -16 15 0 13
9 11 26 -6z m4750 -41 c-3 -9 -14 -14 -23 -12 -19 4 -24 36 -8 54 13 15 39
-21 31 -42z m-4395 33 c-1 -12 -15 -9 -19 4 -3 6 1 10 8 8 6 -3 11 -8 11 -12z
m104 -7 c-3 -5 -16 -10 -28 -10 -18 0 -19 2 -7 10 20 13 43 13 35 0z m-341
-15 c-4 -8 -7 -15 -9 -15 -2 0 -5 7 -9 15 -3 9 0 15 9 15 9 0 12 -6 9 -15z
m149 -5 c16 0 18 -3 8 -9 -11 -7 -11 -9 0 -14 8 -3 9 -6 3 -6 -6 -1 -17 5 -24
13 -6 8 -19 12 -28 9 -15 -6 -15 -5 -2 11 8 11 16 14 18 7 2 -6 13 -11 25 -11z
m3422 11 c-3 -6 -24 -9 -46 -9 -27 0 -37 3 -28 9 19 12 82 11 74 0z m-3645
-11 c0 -5 -7 -10 -16 -10 -8 0 -12 5 -9 10 3 6 10 10 16 10 5 0 9 -4 9 -10z
m280 -16 c0 -2 -7 -4 -15 -4 -8 0 -15 4 -15 10 0 5 7 7 15 4 8 -4 15 -8 15
-10z m3406 1 c-7 -19 7 -19 46 1 31 16 32 16 55 -12 13 -16 23 -33 23 -38 0
-5 11 -24 26 -43 14 -18 23 -37 20 -42 -3 -5 9 -18 28 -29 31 -19 35 -19 41
-4 5 13 8 14 14 3 6 -10 13 -5 24 18 9 17 11 28 5 25 -8 -5 -9 -1 -3 12 4 10
8 28 10 38 2 25 45 30 45 6 0 -10 6 -23 14 -30 8 -6 12 -19 9 -27 -4 -11 -2
-14 5 -9 7 4 12 3 12 -3 0 -5 -5 -13 -11 -16 -7 -5 -5 -13 6 -25 25 -27 12
-37 -45 -34 -27 2 -50 -1 -50 -6 0 -6 6 -10 13 -10 9 0 14 -12 15 -29 1 -28
-1 -29 -24 -19 -13 6 -24 15 -24 20 0 4 -24 8 -53 8 l-52 0 -54 68 c-32 40
-81 86 -123 115 -64 43 -67 47 -40 47 17 0 32 6 36 15 3 8 13 15 22 15 10 0
14 -5 10 -15z m-3326 -5 c0 -5 -4 -10 -9 -10 -6 0 -13 5 -16 10 -3 6 1 10 9
10 9 0 16 -4 16 -10z m4320 -24 c0 -18 -16 -29 -30 -21 -13 8 -1 35 16 35 8 0
14 -6 14 -14z m-1380 0 c0 -3 -4 -8 -10 -11 -5 -3 -10 -1 -10 4 0 6 5 11 10
11 6 0 10 -2 10 -4z m1355 -72 c0 -28 -37 -29 -61 -3 -10 12 -13 19 -7 15 7
-4 21 -2 30 3 24 14 38 8 38 -15z m-4309 -8 c18 -14 18 -16 2 -32 -15 -15 -18
-15 -39 5 -13 11 -26 21 -31 21 -4 0 -8 5 -8 10 0 15 53 12 76 -4z m-848 -18
c-2 -12 -8 -23 -14 -25 -7 -2 -10 6 -7 22 6 30 26 34 21 3z m4602 -2 c0 -8 -4
-17 -9 -20 -10 -7 -23 19 -14 28 11 11 23 6 23 -8z m421 4 c12 -7 19 -21 19
-38 0 -21 7 -30 33 -42 23 -11 27 -15 15 -18 -10 -2 -18 -11 -18 -20 0 -18
-60 -62 -83 -62 -7 0 -32 -9 -56 -21 -31 -15 -46 -17 -56 -9 -8 7 -21 7 -38 1
-17 -7 -28 -7 -32 -1 -4 6 -16 8 -29 4 -13 -3 -41 3 -64 13 -43 18 -58 40 -22
30 11 -3 20 -2 20 3 0 4 17 -1 38 -11 33 -18 77 -19 104 -2 10 5 -13 53 -25
53 -5 0 -6 11 -3 24 6 23 -8 47 -16 26 -2 -5 -9 -6 -17 -1 -21 14 12 44 39 36
11 -3 20 -2 20 2 0 5 16 7 35 5 22 -3 45 2 60 12 14 9 30 14 35 11 6 -3 10 -1
10 4 0 14 6 14 31 1z m49 -10 c0 -5 -4 -10 -10 -10 -5 0 -10 5 -10 10 0 6 5
10 10 10 6 0 10 -4 10 -10z m-4586 -67 c-30 -24 -95 -31 -124 -13 -23 14 -7
21 28 10 38 -10 99 10 109 37 5 13 8 14 11 3 3 -7 -8 -24 -24 -37z m226 11 c0
-8 -4 -12 -10 -9 -5 3 -10 10 -10 16 0 5 5 9 10 9 6 0 10 -7 10 -16z m3935
-64 c1 -14 -4 -31 -12 -38 -11 -11 -13 -11 -13 2 0 9 -8 16 -19 16 -10 0 -21
9 -24 19 -3 15 -1 18 11 14 10 -4 13 -2 8 5 -4 7 -4 17 -1 23 11 17 48 -14 50
-41z m-4165 -4 c0 -3 -4 -8 -10 -11 -5 -3 -10 -1 -10 4 0 6 5 11 10 11 6 0 10
-2 10 -4z m700 -16 c-8 -5 -26 -9 -40 -9 -23 1 -23 2 5 9 43 11 52 11 35 0z
m-413 -6 c-3 -3 -12 -4 -19 -1 -8 3 -5 6 6 6 11 1 17 -2 13 -5z m917 -7 c-3
-9 -17 -11 -42 -8 l-37 5 40 7 c22 3 41 7 42 8 1 0 0 -5 -3 -12z m1826 -1 c0
-3 -4 -8 -10 -11 -5 -3 -10 -1 -10 4 0 6 5 11 10 11 6 0 10 -2 10 -4z m-3038
-30 c7 4 -8 -17 -33 -47 -64 -75 -98 -94 -147 -81 l-37 10 46 1 c75 2 159 80
132 124 -4 8 -1 7 10 -1 9 -8 22 -10 29 -6z m4116 8 c12 -4 22 -10 22 -14 0
-10 -49 0 -56 11 -6 10 2 11 34 3z m-1698 -8 c0 -11 -19 -15 -25 -6 -3 5 1 10
9 10 9 0 16 -2 16 -4z m-2307 -92 c-2 -7 8 -17 24 -22 18 -7 21 -11 10 -11
-13 -1 -16 -7 -12 -24 5 -17 -4 -34 -33 -68 -22 -24 -41 -53 -43 -64 -2 -11
-19 -26 -37 -34 -18 -8 -32 -22 -32 -32 0 -9 -8 -19 -17 -22 -10 -2 -26 -8
-35 -12 -13 -5 -15 -2 -11 17 4 13 11 26 17 31 7 4 2 9 -11 13 -13 4 -23 11
-23 16 0 6 7 7 15 4 8 -3 22 -9 30 -12 22 -9 30 23 11 42 -9 9 -23 13 -32 10
-8 -3 -12 -2 -9 4 3 6 -1 10 -9 10 -9 0 -16 -4 -16 -8 0 -4 -10 -7 -22 -6 -41
3 -88 16 -88 25 0 4 -6 14 -13 21 -7 7 -18 26 -25 42 -12 28 -12 28 13 24 14
-3 25 -1 25 4 0 5 18 -1 41 -14 35 -19 40 -26 36 -51 -3 -23 0 -27 16 -25 11
2 23 9 25 17 3 9 0 12 -10 9 -8 -4 -15 0 -15 8 0 7 3 12 6 10 3 -2 22 9 41 25
20 17 28 29 20 29 -8 1 -1 7 15 14 17 7 33 11 38 9 4 -2 21 5 37 17 17 12 30
17 30 11 0 -6 7 -11 16 -11 13 0 14 3 4 15 -6 8 -9 19 -5 25 9 14 35 -19 28
-36z m1135 1 c-3 -3 -9 2 -12 12 -6 14 -5 15 5 6 7 -7 10 -15 7 -18z m-1523
-65 c3 -5 1 -10 -4 -10 -6 0 -11 5 -11 10 0 6 2 10 4 10 3 0 8 -4 11 -10z
m1595 -16 c11 -12 10 -18 -3 -32 -16 -15 -21 -15 -72 3 -30 10 -53 20 -51 22
2 3 26 8 53 13 26 4 51 8 54 9 4 0 12 -6 19 -15z m1204 6 c-6 -6 -21 -6 -39
-1 -30 9 -30 9 10 10 25 1 36 -2 29 -9z m-2616 -188 c5 -31 -15 -27 -21 3 -3
16 0 24 7 22 6 -2 12 -13 14 -25z m162 9 c0 -6 -4 -13 -10 -16 -5 -3 -10 1
-10 9 0 9 5 16 10 16 6 0 10 -4 10 -9z m-9 -64 c-8 -8 -11 -7 -11 4 0 20 13
34 18 19 3 -7 -1 -17 -7 -23z m727 -74 c2 -8 -5 -13 -17 -13 -12 0 -21 6 -21
16 0 18 31 15 38 -3z m155 -40 c-7 -2 -19 -2 -25 0 -7 3 -2 5 12 5 14 0 19 -2
13 -5z m-56 -9 c-3 -3 -12 -4 -19 -1 -8 3 -5 6 6 6 11 1 17 -2 13 -5z"/>
<path d="M2535 3030 c-8 -13 4 -32 16 -25 12 8 12 35 0 35 -6 0 -13 -4 -16
-10z"/>
<path d="M6796 3123 c-6 -14 -5 -15 5 -6 7 7 10 15 7 18 -3 3 -9 -2 -12 -12z"/>
<path d="M7310 3040 c0 -5 5 -10 11 -10 5 0 7 5 4 10 -3 6 -8 10 -11 10 -2 0
-4 -4 -4 -10z"/>
<path d="M2850 2809 c0 -5 5 -7 10 -4 6 3 10 8 10 11 0 2 -4 4 -10 4 -5 0 -10
-5 -10 -11z"/>
<path d="M8650 7100 c-6 -12 -9 -24 -7 -27 3 -2 11 5 17 17 6 12 9 24 7 27 -3
2 -11 -5 -17 -17z"/>
<path d="M8591 7009 c-17 -50 -13 -56 14 -19 28 39 31 50 11 50 -8 0 -19 -14
-25 -31z"/>
<path d="M6773 6013 c-12 -2 -45 -33 -74 -69 -28 -35 -55 -64 -60 -64 -5 0 -9
-5 -9 -10 0 -7 7 -7 21 0 11 7 23 9 26 7 7 -8 -53 -37 -76 -37 -11 0 -22 -4
-26 -9 -5 -10 -93 -31 -150 -37 -16 -1 -55 -6 -87 -10 -71 -8 -184 3 -202 21
-7 7 -31 17 -52 21 -21 3 -44 10 -49 15 -6 4 -17 4 -25 -1 -20 -13 -97 -13
-105 0 -12 19 -25 10 -25 -16 0 -22 -2 -25 -15 -14 -12 10 -15 9 -15 -6 -1
-18 -1 -18 -15 0 -17 22 -7 23 -250 -29 -177 -38 -233 -54 -309 -91 -76 -38
-94 -41 -102 -19 -4 8 -24 18 -45 21 -26 4 -44 14 -51 28 -15 29 -28 36 -70
36 -31 0 -38 -4 -38 -19 0 -11 -5 -23 -10 -26 -7 -4 -4 -17 7 -35 16 -29 16
-30 -6 -54 -17 -19 -22 -32 -17 -51 5 -20 1 -31 -20 -50 -33 -30 -60 -32 -74
-5 -6 11 -17 20 -25 20 -8 0 -15 5 -15 10 0 6 -4 10 -10 10 -5 0 -10 -13 -10
-30 0 -16 -4 -30 -10 -30 -5 0 -10 11 -10 25 0 32 -13 32 -39 -2 -19 -23 -24
-25 -46 -15 -21 10 -27 8 -40 -11 -8 -12 -15 -25 -15 -30 0 -11 -37 -58 -44
-58 -25 3 -29 0 -19 -10 8 -8 28 0 74 30 35 23 73 41 84 41 37 0 54 -30 51
-85 -3 -45 -8 -53 -62 -102 -80 -72 -173 -123 -226 -123 -60 0 -187 -62 -215
-105 -12 -18 -53 -55 -90 -81 -37 -26 -79 -59 -93 -72 -14 -13 -41 -33 -60
-43 -42 -23 -73 -42 -80 -49 -3 -3 -16 -10 -30 -16 -39 -17 -169 -117 -175
-134 -3 -8 -25 -28 -49 -43 -24 -15 -65 -52 -91 -82 -26 -31 -51 -52 -57 -49
-7 4 -8 2 -4 -4 4 -7 -28 -46 -79 -96 -47 -47 -85 -90 -85 -96 0 -6 -5 -8 -12
-4 -7 4 -8 3 -4 -5 4 -6 1 -14 -8 -17 -8 -3 -12 -12 -9 -20 3 -8 -1 -14 -8
-15 -19 0 -118 -134 -110 -147 7 -12 91 58 91 76 0 15 33 32 60 32 20 0 60 35
135 121 17 19 53 52 80 74 48 39 122 104 156 137 10 9 43 29 73 43 31 15 56
30 56 35 0 4 16 15 35 24 19 9 35 21 35 25 0 10 49 25 69 22 8 -2 22 6 30 17
16 21 57 44 268 152 111 57 192 115 193 136 0 7 6 14 14 17 15 6 29 47 15 47
-4 0 -6 7 -3 15 4 8 12 15 19 15 7 0 15 7 19 15 3 8 10 15 16 15 6 0 9 -4 6
-9 -6 -10 19 -23 27 -14 3 3 1 17 -4 31 -8 21 -6 29 11 46 17 17 23 19 40 8
27 -17 39 -15 16 3 -26 20 -7 42 50 56 24 6 49 17 55 25 6 8 18 14 27 14 13 0
12 -3 -3 -20 -10 -11 -15 -23 -12 -27 4 -3 7 -1 7 5 0 7 18 15 40 18 22 4 40
10 40 15 0 5 6 9 13 9 7 0 35 21 61 46 26 25 58 47 69 48 12 2 29 6 37 9 49
18 86 27 106 27 13 0 24 5 24 10 0 6 7 10 15 10 9 0 12 -6 8 -16 -4 -12 -2
-15 8 -12 8 3 13 15 11 30 -3 28 10 42 51 52 15 4 25 11 22 16 -3 6 2 10 13
10 22 0 79 27 87 41 4 5 11 7 16 4 5 -4 9 -2 9 3 0 5 15 15 33 23 17 7 34 16
37 19 17 21 109 73 137 77 18 3 36 10 39 14 3 5 14 9 25 9 10 0 19 5 19 11 0
6 6 9 14 6 8 -3 16 -2 18 2 4 10 152 42 218 46 62 5 228 -19 244 -35 5 -5 17
-10 26 -10 9 0 21 -5 28 -12 13 -13 70 -30 162 -49 30 -7 61 -16 68 -22 8 -7
12 -5 12 6 0 23 17 30 78 32 38 2 61 9 80 24 15 12 35 24 45 28 10 3 21 19 24
35 4 20 10 27 20 24 18 -7 81 19 108 44 15 14 36 19 75 20 30 0 69 1 85 1 62
2 67 0 60 -22 -7 -21 -6 -21 16 -5 48 33 67 5 29 -44 l-20 -25 0 23 c0 25 -18
30 -26 7 -8 -20 -61 -8 -98 22 -35 29 -59 16 -50 -26 9 -35 23 -49 62 -60 30
-9 32 -8 32 15 0 25 15 33 22 12 3 -8 9 -8 19 -2 8 5 32 9 54 9 38 0 40 2 45
35 4 30 9 35 35 38 17 2 34 8 39 13 6 5 24 9 42 9 24 0 31 4 30 18 -1 12 7 17
24 18 14 1 36 3 50 4 46 5 80 -10 80 -35 0 -21 4 -23 33 -18 59 9 200 -67 282
-153 97 -102 135 -159 135 -201 0 -13 5 -23 10 -23 6 0 10 -15 10 -34 0 -27
-9 -41 -47 -75 -62 -54 -58 -52 -128 -80 -33 -14 -66 -31 -73 -38 -7 -7 -28
-15 -47 -19 -19 -3 -35 -10 -35 -14 0 -4 20 -17 44 -29 54 -25 65 -40 41 -57
-16 -12 -15 -15 14 -40 33 -28 35 -56 4 -80 -12 -10 -4 -20 44 -57 89 -68 93
-74 93 -148 0 -109 -1 -115 -31 -135 -16 -10 -31 -31 -35 -46 -3 -16 -8 -28
-11 -28 -4 0 -30 14 -60 30 -53 30 -83 38 -83 21 0 -18 141 -124 168 -127 15
-1 30 -2 33 -3 3 -1 32 -23 63 -51 60 -52 106 -66 106 -32 0 9 14 30 31 46 37
35 66 97 72 152 5 55 -36 143 -97 208 -33 36 -43 52 -34 57 8 5 13 31 13 69 0
37 5 64 13 69 6 4 13 21 15 39 2 18 7 35 10 39 16 16 6 43 -15 43 -20 1 -18 3
9 15 17 7 48 32 69 54 20 23 45 41 55 41 27 0 35 21 13 37 -18 13 -17 14 8 8
24 -6 27 -3 37 32 15 54 14 103 -5 162 -14 40 -34 67 -103 135 -194 190 -270
236 -548 332 -73 25 -203 45 -252 39 -116 -16 -179 -16 -188 -2 -5 9 -29 17
-63 19 -30 3 -81 12 -113 21 -55 16 -115 20 -164 10z m712 -113 c-3 -5 -12
-10 -20 -10 -8 0 -17 5 -20 10 -4 6 5 10 20 10 15 0 24 -4 20 -10z m-3994
-1547 c-11 -21 -61 -70 -61 -60 0 7 60 77 66 77 3 0 0 -8 -5 -17z m-81 -103
c0 -5 -5 -10 -11 -10 -5 0 -7 5 -4 10 3 6 8 10 11 10 2 0 4 -4 4 -10z"/>
<path d="M7360 5800 c0 -5 5 -10 11 -10 5 0 7 5 4 10 -3 6 -8 10 -11 10 -2 0
-4 -4 -4 -10z"/>
<path d="M5960 5680 c0 -5 7 -10 15 -10 8 0 15 5 15 10 0 6 -7 10 -15 10 -8 0
-15 -4 -15 -10z"/>
<path d="M5895 5670 c3 -5 10 -10 16 -10 5 0 9 5 9 10 0 6 -7 10 -16 10 -8 0
-12 -4 -9 -10z"/>
<path d="M5732 5628 c-29 -17 -51 -32 -48 -35 8 -8 116 46 116 58 0 13 -9 10
-68 -23z"/>
<path d="M9507 5587 c-22 -18 -32 -57 -14 -57 8 0 17 7 21 15 3 8 12 12 20 9
11 -4 13 0 9 15 -7 28 -17 33 -36 18z"/>
<path d="M6287 5484 c-8 -8 1 -24 14 -24 5 0 9 7 9 15 0 15 -12 20 -23 9z"/>
<path d="M6362 5423 c4 -23 58 -31 58 -10 0 8 -10 17 -22 21 -35 9 -40 7 -36
-11z"/>
<path d="M3730 5230 c-8 -5 -12 -12 -9 -15 4 -3 12 1 19 10 14 17 11 19 -10 5z"/>
<path d="M6886 5182 c10 -21 11 -37 4 -63 -13 -45 -13 -49 5 -43 18 7 20 -7 3
-24 -9 -9 -6 -12 14 -12 27 0 58 23 58 42 0 41 -25 85 -60 106 l-38 22 14 -28z"/>
<path d="M4644 4989 c-3 -6 -1 -16 4 -21 8 -8 11 -5 9 11 -1 24 -3 25 -13 10z"/>
<path d="M7183 4913 c-19 -7 -16 -43 4 -50 16 -6 53 28 53 48 0 9 -36 11 -57
2z"/>
<path d="M5547 4829 c18 -11 38 -19 45 -16 7 2 -4 12 -26 21 -52 22 -58 20
-19 -5z"/>
<path d="M5619 4746 c6 -7 38 -25 71 -40 33 -15 75 -42 95 -60 l35 -34 20 25
c28 35 25 44 -18 73 -20 14 -39 27 -42 30 -3 3 -21 5 -40 5 -19 0 -57 4 -84 8
-40 6 -47 5 -37 -7z"/>
<path d="M7727 4436 c-16 -12 -16 -14 -1 -20 8 -3 27 -6 41 -6 18 0 24 5 21
18 -4 21 -37 26 -61 8z"/>
<path d="M9229 4333 c-13 -16 -12 -17 4 -4 16 13 21 21 13 21 -2 0 -10 -8 -17
-17z"/>
<path d="M2783 3935 c-7 -13 -9 -45 -6 -83 5 -51 9 -62 24 -62 22 0 28 17 18
50 -5 14 -12 45 -16 70 -8 40 -10 43 -20 25z"/>
<path d="M7043 3323 c-15 -5 -18 -33 -4 -33 5 0 23 6 41 14 25 10 29 14 15 20
-19 7 -34 7 -52 -1z"/>
<path d="M3322 3240 c-12 -20 -6 -50 12 -62 19 -13 28 -8 23 12 -3 11 -1 23 4
26 14 8 11 22 -9 33 -14 7 -21 5 -30 -9z"/>
<path d="M7030 3210 c0 -5 5 -10 11 -10 5 0 7 5 4 10 -3 6 -8 10 -11 10 -2 0
-4 -4 -4 -10z"/>
<path d="M7225 3170 c4 -6 11 -8 16 -5 14 9 11 15 -7 15 -8 0 -12 -5 -9 -10z"/>
<path d="M3185 3150 c3 -5 12 -7 20 -3 21 7 19 13 -6 13 -11 0 -18 -4 -14 -10z"/>
<path d="M3985 3030 c-10 -16 52 -16 70 1 5 5 -5 9 -27 9 -20 0 -40 -4 -43
-10z"/>
<path d="M4990 2976 c0 -9 7 -16 16 -16 9 0 14 5 12 12 -6 18 -28 21 -28 4z"/>
<path d="M2430 2730 c-5 -3 -6 -11 -1 -18 5 -9 14 -9 39 0 18 7 32 16 32 20 0
8 -56 6 -70 -2z"/>
<path d="M2438 2668 c12 -12 24 -19 28 -15 10 10 -16 37 -34 37 -13 0 -12 -4
6 -22z"/>
<path d="M2324 2625 c1 -26 16 -36 16 -10 0 8 0 18 1 22 0 4 -4 9 -9 11 -6 2
-9 -8 -8 -23z"/>
</g>
</svg>
